<?xml version="1.0" standalone="no"?>
<!DOCTYPE svg PUBLIC "-//W3C//DTD SVG 20010904//EN"
 "http://www.w3.org/TR/2001/REC-SVG-20010904/DTD/svg10.dtd">
<svg version="1.0" xmlns="http://www.w3.org/2000/svg"
 width="1280.000000pt" height="853.000000pt" viewBox="0 0 1280.000000 853.000000"
 preserveAspectRatio="xMidYMid meet">
<metadata>
Created by potrace 1.15, written by Peter Selinger 2001-2017
</metadata>
<g transform="translate(0.000000,853.000000) scale(0.100000,-0.100000)"
fill="#000000" stroke="none">
<path d="M2982 7445 c-171 -37 -327 -161 -392 -310 -23 -53 -50 -174 -50 -222
1 -111 52 -251 126 -345 l45 -58 -48 21 c-60 27 -185 36 -259 20 -94 -21 -220
-128 -416 -352 -87 -99 -136 -182 -190 -322 -132 -340 -228 -893 -189 -1092 7
-36 0 -59 -71 -227 -71 -169 -101 -266 -308 -989 l-229 -801 -296 -578 c-308
-603 -315 -619 -277 -667 9 -12 123 -79 252 -149 258 -139 290 -149 335 -103
53 53 654 1126 932 1664 157 303 288 556 292 563 8 15 582 -700 588 -732 2
-12 21 -356 42 -766 25 -492 42 -753 50 -768 26 -49 43 -52 315 -62 173 -6
265 -6 285 1 66 23 62 -39 64 1017 l2 957 -328 503 -329 504 97 406 c54 224
100 412 104 418 4 8 71 -35 181 -114 l175 -126 319 -118 c176 -65 320 -119
321 -121 1 -1 14 -47 29 -102 153 -549 533 -1050 1026 -1351 268 -163 569
-270 900 -321 156 -23 472 -23 630 1 507 76 944 288 1301 633 276 267 480 590
594 945 l29 86 265 97 c379 139 364 131 556 269 109 78 177 121 180 113 17
-45 195 -815 192 -827 -2 -9 -150 -238 -328 -510 l-324 -495 4 -955 c2 -633 7
-962 14 -975 28 -54 50 -56 344 -46 289 11 305 17 317 106 3 22 22 366 41 765
20 399 40 733 45 742 8 14 543 691 569 721 4 4 132 -234 285 -529 267 -517
900 -1648 951 -1703 45 -47 78 -37 339 104 149 80 243 137 253 152 10 14 16
40 16 57 -1 20 -109 241 -296 606 l-294 575 -231 806 c-203 706 -240 826 -303
975 l-72 169 -2 200 c-2 214 -23 366 -81 602 -85 350 -168 535 -305 688 -193
216 -319 323 -401 344 -75 18 -175 13 -250 -12 l-66 -23 31 37 c83 97 137 238
137 359 0 73 -32 197 -67 263 -69 129 -223 239 -378 272 -89 19 -118 19 -213
0 -148 -30 -280 -120 -363 -247 -71 -111 -98 -287 -63 -421 51 -199 215 -356
415 -397 35 -7 66 -14 68 -16 2 -2 -46 -56 -107 -121 -83 -88 -118 -133 -139
-180 l-28 -62 -393 -1 -392 0 -17 43 c-9 23 -42 93 -74 155 -504 985 -1626
1479 -2694 1187 -618 -170 -1155 -603 -1446 -1169 l-54 -106 -427 0 -428 0
-36 73 c-28 55 -62 98 -142 179 -58 59 -104 109 -101 111 2 2 38 11 79 20 110
26 175 62 261 147 112 110 164 233 162 385 -2 262 -180 475 -441 530 -87 18
-136 18 -220 0z m229 -101 c227 -67 366 -275 332 -495 -39 -250 -278 -424
-522 -380 -372 67 -510 518 -235 770 115 105 283 147 425 105z m6558 -105
c128 -29 248 -125 307 -244 30 -61 37 -87 41 -159 13 -193 -83 -358 -252 -438
-176 -82 -369 -52 -507 80 -113 107 -161 243 -138 389 41 257 297 430 549 372z
m-3122 -43 c39 -2 81 -9 92 -15 11 -6 35 -11 53 -11 31 0 276 -64 287 -75 2
-3 -6 -5 -18 -5 -25 0 -20 -14 11 -31 18 -10 20 -9 15 5 -10 25 24 20 88 -14
63 -33 69 -35 59 -19 -10 17 35 -9 83 -47 45 -37 64 -44 42 -17 -8 10 13 2 51
-18 102 -56 270 -168 270 -179 0 -6 15 -17 34 -25 18 -8 57 -41 86 -75 28 -33
56 -58 60 -55 10 6 70 -43 70 -56 0 -6 27 -35 60 -65 33 -31 76 -82 96 -115
19 -32 38 -59 40 -59 3 0 2 6 -2 13 -4 6 -3 8 1 4 5 -4 10 -14 11 -22 1 -7 16
-32 34 -54 18 -22 29 -44 26 -49 -3 -5 1 -15 9 -22 12 -10 15 -10 15 1 0 23
80 -114 86 -148 3 -18 17 -43 30 -56 13 -13 31 -40 39 -60 15 -36 15 -37 -10
-43 -15 -4 -32 -1 -42 7 -15 13 -15 12 -5 -7 9 -16 8 -26 -4 -43 -8 -11 -19
-49 -23 -84 -5 -34 -9 -53 -10 -43 -2 37 -42 156 -52 156 -6 0 -8 -4 -5 -8 3
-5 19 -59 36 -121 23 -85 30 -132 30 -201 l0 -89 -30 5 c-27 6 -31 3 -45 -29
-36 -86 1 -329 55 -362 22 -13 50 6 50 34 0 22 -4 27 -22 27 -36 -1 -61 62
-66 164 -3 64 0 90 11 105 13 16 17 17 31 6 9 -7 16 -26 16 -41 0 -16 11 -41
24 -57 20 -23 27 -48 35 -122 9 -86 21 -121 42 -121 4 0 11 10 15 23 l8 22 8
-25 c4 -15 6 17 4 78 -3 80 -1 102 9 102 7 0 16 -13 20 -30 4 -16 11 -32 16
-35 5 -4 9 -27 9 -52 0 -37 -3 -44 -16 -39 -12 4 -15 0 -12 -17 2 -12 10 -22
18 -22 22 0 26 102 5 150 -8 21 -15 39 -15 42 0 6 91 -5 98 -12 3 -3 8 -43 11
-89 5 -73 4 -83 -8 -73 -12 10 -14 9 -8 -6 5 -14 -28 -34 -203 -122 l-210
-105 0 31 c0 42 -20 34 -47 -21 l-23 -44 0 41 c0 35 -3 40 -18 36 -14 -3 -19
-16 -21 -51 -1 -26 -9 -58 -18 -71 -17 -27 -20 -80 -4 -108 10 -19 7 -52 -14
-180 -5 -26 -2 -33 10 -33 18 0 31 27 41 85 l6 40 55 -115 54 -114 -34 -76
c-46 -99 -65 -183 -47 -205 12 -14 15 -14 39 1 31 19 61 52 61 67 0 5 -8 3
-18 -6 -10 -10 -27 -17 -37 -17 -15 0 -17 6 -11 47 7 53 50 153 65 153 6 0 11
-5 11 -10 0 -6 12 -16 26 -22 21 -10 25 -17 20 -40 -3 -15 -9 -42 -12 -58 -9
-41 17 -40 44 1 10 17 23 29 27 27 5 -1 13 12 19 30 11 32 30 52 50 52 6 0 0
-9 -12 -20 -12 -12 -22 -26 -22 -33 1 -7 15 4 33 24 32 36 75 65 84 56 2 -3
-19 -60 -47 -126 -49 -114 -69 -150 -55 -98 5 19 5 20 -5 4 -7 -10 -9 -25 -6
-33 3 -8 1 -12 -4 -9 -7 5 -22 -27 -25 -55 -2 -22 -75 -127 -111 -162 -47 -44
-77 -90 -80 -120 -1 -9 -21 -40 -45 -69 -64 -77 -232 -249 -238 -244 -2 3 4
14 14 25 10 11 14 20 8 20 -5 0 -33 -29 -61 -65 -50 -62 -144 -127 -160 -110
-9 9 47 57 111 97 26 16 47 32 47 34 0 15 -92 -50 -149 -104 -59 -56 -63 -63
-38 -59 15 2 27 3 27 1 0 -5 -204 -130 -250 -154 -33 -17 -41 -19 -31 -6 22
27 -5 19 -41 -13 -18 -15 -46 -35 -63 -43 -46 -23 -166 -61 -172 -54 -3 3 2 8
11 12 9 3 16 10 16 15 0 5 -15 2 -32 -7 -43 -22 -45 -24 -29 -34 27 -16 -176
-65 -394 -94 -191 -26 -350 -21 -630 19 -111 16 -270 57 -243 63 9 2 26 -2 37
-8 12 -6 21 -7 21 -1 0 11 -58 61 -71 61 -13 0 -11 -14 3 -28 9 -9 7 -12 -10
-12 -28 0 -79 25 -112 55 -14 12 -34 25 -45 29 -16 6 -13 0 10 -24 35 -36 31
-36 -92 21 -84 38 -105 56 -55 45 27 -5 27 -5 -3 9 -16 8 -44 14 -60 15 -38 0
-194 98 -354 221 -60 46 -74 68 -21 33 14 -10 3 7 -25 36 -27 29 -69 61 -91
71 -24 11 -74 53 -117 99 -72 77 -157 191 -157 212 0 21 32 -17 72 -84 22 -38
43 -66 46 -64 2 3 -21 43 -52 90 -50 75 -83 105 -109 98 -5 -1 -6 2 -2 8 4 6
-10 29 -29 51 -20 22 -45 59 -56 82 -27 60 -70 175 -70 188 0 27 21 -9 60
-101 23 -56 44 -99 46 -97 2 2 -10 36 -27 76 -29 70 -32 103 -6 67 7 -10 33
-63 57 -119 24 -56 45 -96 47 -90 5 13 -92 221 -114 245 -8 10 -19 15 -24 13
-4 -3 -16 8 -25 25 -10 16 -24 32 -32 35 -15 5 -13 -5 19 -89 31 -84 14 -62
-21 26 -18 46 -45 108 -60 139 -19 42 -25 66 -22 100 4 34 7 40 13 24 7 -20 8
-20 8 0 2 37 27 -6 46 -80 10 -38 20 -64 22 -58 2 6 -3 35 -11 64 -19 62 -19
69 -6 69 13 0 23 -25 50 -118 12 -41 24 -72 26 -69 3 3 -4 39 -15 79 -24 85
-24 88 -12 88 5 0 12 -18 16 -39 10 -61 68 -174 106 -205 23 -20 35 -24 38
-15 2 7 -13 26 -33 42 -36 29 -80 99 -74 118 2 5 20 -2 41 -16 20 -14 37 -23
37 -20 0 3 -9 33 -21 67 -20 60 -20 61 -1 82 11 11 41 63 66 114 l47 93 32
-63 c36 -71 82 -108 133 -108 37 0 39 5 24 44 -6 17 -14 24 -25 20 -28 -11
-75 17 -99 60 -41 70 -41 92 0 186 20 47 38 86 39 88 2 2 12 -1 23 -7 17 -9
20 -7 24 20 5 34 -20 59 -59 59 -28 0 -323 146 -323 160 0 6 5 10 10 10 6 0
10 12 10 26 0 20 -4 25 -16 20 -28 -11 -44 13 -44 64 l0 48 40 7 40 7 -2 152
c-2 144 -1 153 20 174 12 12 22 30 22 39 0 13 -3 14 -12 5 -25 -25 -39 -14
-36 30 3 37 8 46 45 71 44 29 63 69 63 135 0 55 -34 35 -79 -47 l-29 -55 -4
89 c-3 79 0 97 24 152 14 35 23 65 18 68 -11 7 -26 -16 -27 -40 -1 -11 -7 -33
-14 -50 -9 -22 -13 -26 -16 -13 -2 9 0 26 6 37 7 12 7 21 1 23 -5 2 20 53 56
113 64 108 102 161 70 98 -32 -65 -15 -45 29 31 45 80 75 120 82 112 2 -2 -9
-28 -26 -58 -33 -58 -43 -94 -13 -43 71 117 85 148 66 141 -15 -6 -14 -2 6 20
67 75 124 129 132 126 12 -3 72 33 89 55 9 11 2 9 -19 -6 -18 -13 -35 -21 -38
-18 -6 5 33 38 100 84 25 18 50 43 55 55 9 24 23 35 133 111 98 66 188 118
188 107 0 -14 20 -12 55 5 19 10 22 13 8 9 -13 -3 -23 -1 -23 5 0 9 37 28 215
110 6 2 -3 -10 -19 -27 -31 -34 -29 -36 25 -25 23 4 28 8 17 12 -14 5 -13 10
7 33 18 21 52 36 140 63 64 19 128 35 143 35 15 0 63 9 107 19 44 10 97 16
118 13 21 -2 37 0 37 6 0 10 286 9 447 -2z m-1642 -512 c-36 -28 -61 -36 -30
-10 17 14 35 26 40 26 6 -1 1 -8 -10 -16z m2846 -51 c13 -16 12 -17 -3 -4 -10
7 -18 15 -18 17 0 8 8 3 21 -13z m-5025 -255 l231 -73 109 -115 109 -115 174
-360 173 -361 512 -257 c281 -141 517 -260 524 -265 11 -7 -6 -48 -73 -183
-48 -96 -89 -175 -90 -177 -2 -3 -773 277 -950 345 -6 2 -114 77 -240 168
-191 136 -231 161 -237 147 -17 -37 -239 -988 -235 -1003 2 -9 151 -241 331
-516 l326 -500 0 -927 0 -927 -237 7 c-131 3 -241 9 -244 13 -6 5 -80 1406
-79 1498 0 27 -52 98 -346 465 -190 238 -349 434 -353 436 -4 1 -144 -262
-311 -585 -201 -391 -412 -779 -628 -1158 -179 -314 -330 -575 -336 -582 -8
-9 -65 17 -228 105 -120 64 -218 121 -218 126 0 6 130 264 289 575 l289 566
222 775 c121 426 224 784 227 795 3 11 45 115 94 232 l89 212 -12 80 c-36 259
105 918 252 1175 79 138 381 443 455 460 11 2 56 3 100 1 67 -2 119 -15 311
-77z m7527 -37 c90 -34 364 -313 449 -456 45 -75 117 -273 163 -447 72 -276
112 -617 87 -750 l-11 -57 86 -203 c80 -190 101 -256 318 -1013 l233 -810 286
-559 c158 -308 288 -563 289 -568 3 -12 -436 -249 -445 -240 -4 4 -149 256
-323 561 -214 374 -419 752 -631 1160 -172 333 -317 607 -321 608 -4 1 -161
-190 -348 -425 -238 -300 -341 -437 -347 -462 -4 -19 -24 -366 -43 -770 -19
-404 -39 -737 -43 -741 -4 -4 -111 -10 -238 -13 l-231 -7 -6 362 c-4 199 -7
616 -7 925 l0 563 332 508 c194 297 331 516 330 528 -5 48 -239 1000 -246 998
-4 -1 -111 -75 -239 -165 l-232 -164 -473 -173 c-260 -96 -475 -171 -477 -169
-3 2 -42 83 -88 179 l-84 174 524 265 523 265 173 359 172 359 112 117 112
117 208 63 c114 35 222 69 238 76 35 15 163 18 198 5z m-6128 -458 c-27 -68
-86 -262 -101 -333 -9 -47 -20 -88 -23 -92 -8 -9 -373 -46 -391 -40 -10 4
-201 384 -231 460 l-9 22 381 0 c359 0 381 -1 374 -17z m329 -87 c-5 -22 -50
-66 -68 -66 -8 0 14 49 37 83 23 33 41 23 31 -17z m-194 -96 c-11 -7 -30 -65
-29 -90 0 -8 8 8 17 35 24 72 28 30 6 -74 -19 -93 -29 -115 -44 -91 -9 13 -10
13 -11 0 0 -10 -3 -8 -9 5 -7 17 -9 17 -9 3 -1 -19 -21 -26 -21 -8 0 28 34
140 42 140 5 0 7 -8 4 -17 -3 -10 -7 -36 -10 -58 -4 -32 -2 -29 10 15 8 30 12
71 10 89 -4 25 3 53 22 95 l27 61 3 -49 c2 -28 -1 -52 -8 -56z m4096 24 c12
-32 19 -64 17 -72 -3 -7 1 -20 9 -30 19 -21 52 -157 44 -178 -3 -9 1 -25 9
-37 8 -12 15 -29 15 -39 0 -24 -36 -24 -49 0 -6 9 -11 12 -11 6 0 -17 -80 -14
-80 2 0 8 -5 14 -11 14 -5 0 -7 -4 -4 -10 3 -5 1 -10 -6 -10 -8 0 -10 20 -5
73 4 39 7 134 8 209 0 133 1 137 21 134 15 -2 27 -19 43 -62z m834 61 c0 -19
-223 -462 -237 -471 -14 -9 -59 -7 -183 6 -91 10 -166 19 -166 19 -1 1 -5 27
-9 59 -6 52 -74 334 -90 375 -7 16 13 17 339 17 190 0 346 -2 346 -5z m-4910
-250 c0 -43 -3 -55 -15 -55 -13 0 -15 8 -10 38 15 88 25 95 25 17z m24 -192
c-20 -67 -28 -181 -16 -225 8 -31 8 -38 -3 -38 -25 0 -27 20 -20 160 7 142 7
142 47 149 3 0 0 -20 -8 -46z m-73 0 c-10 -17 -10 -17 -11 1 0 19 -1 19 -20
-2 -16 -17 -22 -41 -27 -107 -6 -79 -7 -84 -27 -81 -18 3 -21 9 -18 52 3 75
15 87 22 24 l7 -55 1 66 c2 73 -6 91 -25 57 -12 -21 -12 -21 -7 12 9 57 11 59
61 62 52 3 60 -2 44 -29z m129 -8 c0 -40 -3 -47 -26 -56 -15 -5 -28 -8 -30 -6
-2 2 3 27 11 55 20 67 45 71 45 7z m-378 -40 c-2 -30 -7 -55 -10 -54 -4 0 -45
20 -92 44 -74 38 -82 44 -60 49 24 6 75 11 135 14 l30 2 -3 -55z m263 -143
c-6 -45 -9 -51 -21 -41 -12 10 -14 28 -8 93 4 45 12 92 18 106 9 22 11 17 14
-40 2 -36 0 -89 -3 -118z m-35 129 c0 -58 -13 -151 -21 -151 -10 0 -12 88 -3
143 8 44 24 50 24 8z m4098 -88 c-2 -45 -8 -78 -14 -80 -16 -5 -22 16 -30 92
l-7 65 27 0 27 0 -3 -77z m432 30 l35 -5 -65 -34 c-36 -18 -71 -33 -77 -34 -9
0 -13 15 -13 44 l0 44 43 -4 c23 -3 58 -7 77 -11z m-4520 -819 c0 -8 -4 -12
-10 -9 -5 3 -10 13 -10 21 0 8 5 12 10 9 6 -3 10 -13 10 -21z m210 -60 c16
-41 12 -47 -20 -24 -34 25 -39 50 -10 50 13 0 24 -10 30 -26z m3756 -119 c-19
-29 -36 -33 -36 -7 0 22 11 38 30 44 22 7 24 -9 6 -37z m-108 -435 c-12 -16
-26 -30 -30 -30 -10 0 -2 16 20 43 25 29 34 19 10 -13z m-3203 -381 c20 -21
19 -21 -17 2 -21 13 -38 28 -38 32 0 12 33 -8 55 -34z"/>
<path d="M6120 7161 c-18 -35 -12 -41 43 -40 30 1 40 4 24 6 -25 4 -28 8 -23
29 5 19 3 24 -13 24 -11 0 -25 -9 -31 -19z"/>
<path d="M6293 7170 c-13 -5 -23 -14 -23 -19 0 -24 238 -27 262 -3 12 12 4 18
-42 27 -33 7 -34 6 -15 -8 17 -14 18 -16 4 -22 -27 -10 -152 -1 -156 12 -2 6
4 13 14 16 16 4 15 5 -2 5 -11 0 -30 -3 -42 -8z"/>
<path d="M6600 7164 c0 -18 24 -44 40 -44 23 0 24 4 10 31 -10 17 -50 28 -50
13z"/>
<path d="M6782 7126 c28 -31 66 -34 44 -4 -7 9 -25 20 -41 24 l-29 7 26 -27z"/>
<path d="M5900 7127 c-22 -9 -23 -11 -6 -14 10 -3 23 0 29 6 16 16 5 20 -23 8z"/>
<path d="M5960 7120 c24 -7 24 -7 -10 -18 -19 -5 -28 -11 -19 -11 20 -1 81 19
94 30 5 5 -12 9 -40 8 -39 -1 -44 -3 -25 -9z"/>
<path d="M5800 7112 c-8 -3 -30 -18 -48 -33 -31 -28 -32 -29 -9 -29 13 0 36
13 52 30 29 31 31 41 5 32z"/>
<path d="M6958 7091 c18 -17 37 -31 43 -31 18 0 -11 30 -45 46 l-31 15 33 -30z"/>
<path d="M6075 7090 c-31 -12 -42 -19 -28 -20 19 0 22 -4 17 -29 -5 -22 -2
-29 13 -33 26 -6 113 3 113 12 0 4 -11 5 -25 2 -42 -8 -57 3 -43 32 7 18 24
28 52 35 l41 11 -37 -5 c-21 -2 -38 0 -38 6 0 12 -5 11 -65 -11z"/>
<path d="M6350 7104 c-70 -12 -100 -25 -100 -44 0 -29 67 -43 180 -38 99 4
143 18 134 43 -3 8 -20 19 -37 24 -38 12 -142 21 -177 15z m141 -24 c19 -11
20 -13 6 -27 -33 -33 -178 -26 -185 10 -7 34 124 46 179 17z"/>
<path d="M5873 7083 c9 -2 23 -2 30 0 6 3 -1 5 -18 5 -16 0 -22 -2 -12 -5z"/>
<path d="M6644 7053 c9 -27 20 -39 40 -44 23 -7 27 -5 23 9 -13 45 -12 47 17
50 59 7 95 -7 122 -47 14 -22 35 -42 47 -45 29 -7 32 -1 13 26 -23 32 -20 38
14 38 49 0 97 -26 122 -64 22 -34 53 -54 65 -43 2 3 -5 19 -18 36 -30 40 -99
73 -163 78 -28 2 -73 10 -101 18 -27 7 -82 16 -122 19 l-72 6 13 -37z"/>
<path d="M5875 7054 c-27 -9 -57 -22 -65 -30 -12 -12 -6 -14 45 -14 54 -1 58
-2 41 -15 -10 -8 -39 -17 -65 -20 -25 -4 -55 -10 -66 -15 l-20 -9 20 0 c31 -1
143 27 177 45 41 21 23 37 -36 33 -48 -4 -63 7 -23 16 12 3 40 9 62 14 35 8
36 9 10 9 -16 0 -52 -6 -80 -14z"/>
<path d="M5666 6975 c-37 -41 -139 -95 -153 -81 -3 3 7 21 22 40 16 22 22 36
15 36 -14 0 -90 -78 -90 -92 0 -14 37 -9 97 14 58 23 65 25 93 27 23 2 95 101
74 101 -9 0 -35 -20 -58 -45z"/>
<path d="M6048 6983 c-10 -2 -18 -8 -18 -13 0 -5 -13 -11 -30 -15 -37 -8 -40
-24 -3 -17 23 4 25 2 19 -14 -26 -63 -28 -75 -16 -89 13 -16 65 -19 119 -9 44
9 39 24 -8 24 -22 0 -42 4 -45 8 -3 5 0 27 6 50 9 38 14 42 42 43 17 0 40 4
51 9 15 6 8 9 -28 9 -29 1 -46 5 -42 11 6 10 -15 12 -47 3z"/>
<path d="M5470 6970 c-8 -5 -10 -10 -5 -10 6 0 17 5 25 10 8 5 11 10 5 10 -5
0 -17 -5 -25 -10z"/>
<path d="M6285 6968 c-72 -26 -87 -76 -32 -105 41 -22 191 -30 262 -14 90 20
108 67 43 106 -26 15 -55 20 -138 22 -59 1 -118 -2 -135 -9z m187 -8 c38 -11
64 -42 52 -61 -12 -20 -72 -39 -121 -39 -82 0 -133 41 -99 79 27 30 101 39
168 21z"/>
<path d="M7140 6971 c0 -26 196 -132 240 -130 8 0 -19 14 -60 30 -41 16 -86
38 -100 49 l-25 21 30 -6 c29 -5 25 -2 -25 18 -24 9 -24 10 -5 17 16 7 12 9
-17 9 -21 1 -38 -3 -38 -8z"/>
<path d="M6673 6954 c3 -11 13 -45 22 -76 16 -56 18 -58 50 -58 l33 0 -16 51
c-20 62 -10 73 58 64 59 -7 87 -29 113 -90 11 -27 21 -51 22 -52 1 -2 16 -6
33 -9 l32 -7 -24 56 c-14 30 -22 58 -19 61 13 12 58 5 100 -15 34 -16 51 -34
78 -84 26 -45 42 -64 60 -67 14 -3 25 -3 25 0 0 2 -16 31 -35 63 -49 80 -126
122 -219 121 -22 -1 -57 6 -76 16 -22 10 -60 17 -105 17 -38 0 -72 3 -75 7 -3
3 -18 10 -34 14 -24 6 -27 4 -23 -12z"/>
<path d="M5830 6926 c-65 -13 -125 -46 -125 -67 0 -10 15 -15 58 -17 31 -2 57
-7 57 -12 0 -17 -59 -41 -117 -48 -31 -4 -58 -13 -61 -19 -5 -18 20 -16 111 9
83 22 147 64 133 86 -4 7 -32 12 -67 12 -32 0 -59 4 -59 8 0 13 47 32 97 39
24 3 46 10 49 14 7 11 -7 10 -76 -5z"/>
<path d="M7311 6922 c8 -12 20 -24 28 -27 27 -10 22 3 -9 25 -31 22 -32 22
-19 2z"/>
<path d="M5375 6900 c-68 -33 -145 -94 -145 -116 0 -21 18 -17 88 16 72 34 84
49 16 20 -52 -23 -64 -24 -64 -10 0 15 83 72 143 97 29 12 45 22 37 22 -8 0
-42 -13 -75 -29z"/>
<path d="M7445 6847 c53 -62 94 -88 46 -30 -17 21 -31 43 -31 49 0 6 -8 14
-17 18 -10 3 -24 9 -32 12 -8 4 7 -18 34 -49z"/>
<path d="M5603 6869 c-12 -4 -38 -33 -57 -63 -38 -60 -92 -102 -144 -112 -40
-8 -40 0 -1 60 16 27 28 50 26 52 -12 12 -40 -14 -77 -71 -60 -92 -42 -107 66
-56 34 16 65 34 69 41 6 9 9 9 15 0 15 -24 46 2 88 76 24 42 42 77 40 79 -2 1
-13 -1 -25 -6z"/>
<path d="M7265 6820 c-10 -16 22 -66 64 -99 38 -30 160 -92 211 -107 22 -6 23
-5 11 10 -7 9 -20 16 -27 16 -41 0 -206 101 -191 116 2 2 43 -12 92 -31 49
-19 90 -33 92 -31 2 2 -19 24 -47 49 -68 61 -187 106 -205 77z m96 -21 c36
-12 103 -58 96 -65 -6 -7 -147 47 -147 55 0 7 10 21 15 21 1 0 17 -5 36 -11z"/>
<path d="M5185 6810 c-3 -6 1 -7 9 -4 18 7 21 14 7 14 -6 0 -13 -4 -16 -10z"/>
<path d="M5143 6787 c-19 -11 -38 -31 -112 -121 -15 -18 -15 -18 7 -7 12 6 22
15 22 20 0 5 24 34 54 65 30 31 54 56 53 56 -1 -1 -12 -6 -24 -13z"/>
<path d="M7620 6782 c0 -4 19 -26 42 -47 43 -40 43 -40 9 -3 -18 20 -30 41
-27 47 4 6 0 11 -8 11 -9 0 -16 -4 -16 -8z"/>
<path d="M5990 6766 c-19 -7 -36 -20 -38 -29 -2 -10 -17 -19 -38 -23 -20 -4
-34 -12 -34 -21 0 -11 7 -13 32 -8 26 6 30 5 25 -10 -17 -42 -37 -152 -32
-172 9 -38 82 -50 168 -26 9 2 17 14 17 25 0 18 -4 19 -34 14 -68 -13 -79 14
-53 129 l12 50 58 9 c38 6 57 14 57 23 0 12 -11 13 -54 8 l-54 -7 5 26 c3 14
4 26 2 25 -2 0 -20 -6 -39 -13z"/>
<path d="M5280 6753 c-94 -41 -210 -149 -210 -197 0 -15 5 -17 28 -11 36 9
125 59 130 73 2 7 -16 1 -40 -13 -52 -30 -68 -31 -68 -6 0 27 104 118 151 132
21 7 44 18 50 26 14 16 4 16 -41 -4z"/>
<path d="M6286 6735 c-57 -20 -89 -47 -104 -88 -19 -48 3 -95 61 -127 51 -29
189 -39 273 -21 73 17 124 64 124 114 0 49 -46 100 -107 121 -58 20 -193 20
-247 1z m216 -31 c73 -38 62 -134 -18 -164 -60 -23 -171 -5 -201 32 -63 75 26
166 147 151 25 -3 57 -11 72 -19z"/>
<path d="M7591 6651 c32 -49 66 -91 74 -95 16 -6 3 21 -42 89 -19 28 -16 38
10 32 21 -6 21 -6 3 8 -11 8 -28 15 -37 15 -10 0 -21 4 -24 10 -3 5 -14 14
-24 20 -10 5 7 -29 40 -79z"/>
<path d="M6725 6720 c4 -6 16 -63 29 -128 l22 -117 42 -3 c40 -3 42 -2 37 20
-27 120 -33 152 -28 164 7 19 46 28 95 21 62 -8 92 -45 123 -151 14 -50 27
-91 29 -93 2 -2 20 -6 40 -10 l36 -6 -30 89 c-17 48 -30 93 -30 101 0 23 37
35 78 24 57 -16 96 -64 136 -166 29 -77 39 -92 65 -102 17 -7 31 -11 31 -8 0
3 -16 48 -36 100 -57 149 -139 214 -255 203 -44 -5 -61 -1 -107 23 -57 31
-144 40 -182 19 -15 -8 -20 -6 -25 10 -5 15 -15 20 -41 20 -22 0 -33 -4 -29
-10z"/>
<path d="M5685 6672 c-66 -23 -113 -57 -121 -88 -8 -33 -4 -36 62 -45 31 -4
62 -13 68 -19 28 -28 -55 -81 -136 -86 -38 -2 -53 -7 -66 -25 l-15 -22 68 5
c93 8 192 58 220 111 l20 38 -24 20 c-16 13 -38 19 -72 19 -50 0 -63 8 -53 33
7 20 49 37 106 44 26 3 53 12 59 19 17 20 -53 18 -116 -4z"/>
<path d="M5025 6615 c-17 -13 -35 -24 -42 -25 -6 0 -33 -35 -60 -77 -66 -104
-66 -103 -55 -103 6 0 31 33 56 74 43 69 82 112 124 135 9 5 14 12 12 15 -3 3
-19 -6 -35 -19z"/>
<path d="M5454 6605 c-24 -10 -37 -28 -64 -91 -36 -86 -84 -144 -138 -170 -30
-14 -36 -14 -49 -1 -13 13 -10 25 25 106 23 50 38 91 34 91 -35 0 -123 -156
-126 -223 -1 -28 2 -32 27 -35 34 -4 100 28 146 71 31 30 33 30 26 8 -7 -22
-5 -23 21 -17 16 4 29 8 30 9 0 1 11 31 24 67 12 36 35 94 51 129 16 35 28 65
27 67 -2 1 -17 -3 -34 -11z"/>
<path d="M7775 6570 c21 -40 126 -151 164 -173 47 -27 37 -13 -19 28 -80 59
-155 169 -102 151 14 -5 14 -4 -2 9 -11 8 -28 15 -38 15 -17 0 -17 -2 -3 -30z"/>
<path d="M7431 6546 c-32 -38 25 -149 113 -218 53 -43 109 -71 165 -83 31 -7
32 -6 22 13 -6 11 -25 24 -43 27 -68 15 -159 80 -188 135 -15 29 -1 26 108
-19 50 -21 92 -35 92 -31 0 14 -57 85 -93 117 -69 61 -152 88 -176 59z m136
-48 c29 -17 73 -67 73 -81 0 -3 -37 10 -82 28 -82 33 -107 57 -76 76 16 10 42
3 85 -23z"/>
<path d="M4823 6478 c-30 -29 -68 -75 -84 -103 -32 -55 -34 -65 -18 -65 15 0
89 59 89 72 0 5 -14 -2 -31 -17 -17 -14 -34 -24 -37 -21 -10 11 27 53 76 87
43 29 82 73 82 93 0 17 -27 1 -77 -46z m41 9 c-3 -8 -17 -23 -32 -34 -52 -37
-57 -36 -17 6 39 41 59 52 49 28z"/>
<path d="M5095 6468 c-63 -33 -120 -83 -157 -140 -60 -91 -71 -158 -27 -158
25 0 94 35 119 60 35 35 21 41 -29 12 -39 -21 -52 -24 -62 -15 -36 36 56 166
149 212 31 14 57 32 60 39 5 17 -6 15 -53 -10z"/>
<path d="M7739 6393 c16 -32 41 -87 56 -123 15 -36 33 -71 41 -79 28 -30 25 0
-10 80 -42 96 -44 114 -16 106 28 -7 25 9 -6 29 -20 13 -27 15 -33 5 -6 -9
-13 -5 -25 13 -31 48 -36 26 -7 -31z"/>
<path d="M5910 6416 c-25 -9 -36 -20 -42 -44 -6 -23 -16 -33 -36 -38 -48 -10
-52 -13 -52 -35 0 -19 4 -21 35 -16 24 4 35 2 35 -6 -1 -7 -9 -68 -19 -136
-11 -69 -18 -129 -16 -135 2 -6 6 -23 9 -38 11 -49 90 -71 185 -52 28 6 31 10
31 42 0 34 0 35 -36 29 -46 -8 -82 7 -89 36 -4 13 1 77 9 142 9 66 16 122 16
126 0 4 32 10 70 14 66 7 70 8 70 32 0 25 0 25 -65 18 l-65 -7 6 41 c7 45 6
45 -46 27z"/>
<path d="M6325 6371 c-113 -28 -195 -124 -195 -228 0 -77 60 -158 143 -193 71
-31 188 -31 269 -1 89 34 148 114 148 201 0 92 -75 186 -169 214 -56 16 -143
19 -196 7z m183 -68 c50 -37 72 -80 72 -143 0 -101 -66 -165 -171 -165 -101 0
-169 68 -169 170 0 69 38 128 100 154 40 17 136 8 168 -16z"/>
<path d="M8047 6330 c27 -29 35 -32 45 -21 11 11 10 13 0 6 -9 -4 -26 4 -45
21 l-32 29 32 -35z"/>
<path d="M4850 6325 c-12 -13 -27 -23 -33 -22 -6 1 -23 -21 -38 -48 -44 -80
-100 -217 -87 -213 15 5 20 15 60 112 23 56 49 97 87 138 29 32 49 58 44 58
-5 0 -20 -11 -33 -25z"/>
<path d="M6794 6318 c6 -29 12 -83 41 -344 l6 -52 46 -7 c24 -3 47 -5 49 -2 2
2 -4 71 -15 153 -20 154 -18 174 18 201 24 19 90 15 125 -6 49 -31 64 -68 91
-226 13 -81 26 -149 27 -150 2 -1 20 -5 41 -8 46 -7 46 -8 12 171 -28 144 -25
167 20 178 55 14 122 -29 148 -94 9 -22 27 -95 42 -163 14 -68 29 -127 33
-130 4 -4 20 -9 35 -13 l29 -7 -7 43 c-19 115 -66 275 -93 313 -38 55 -98 94
-155 101 -41 6 -53 3 -79 -16 l-30 -22 -31 30 c-64 62 -170 81 -234 43 l-31
-20 -11 30 c-9 25 -15 29 -47 29 -36 0 -36 -1 -30 -32z"/>
<path d="M5605 6303 c-100 -22 -185 -97 -185 -164 0 -35 25 -55 85 -69 66 -16
87 -40 73 -81 -18 -52 -103 -88 -167 -69 -28 8 -32 6 -46 -21 -24 -45 -12 -52
71 -47 129 9 221 77 231 173 5 38 2 50 -17 70 -12 13 -37 27 -54 30 -76 15
-96 26 -96 50 0 48 82 92 146 79 22 -4 32 0 42 16 7 11 10 25 7 30 -6 10 -53
12 -90 3z"/>
<path d="M7940 6291 c0 -57 148 -271 188 -271 23 0 12 21 -21 40 -50 30 -127
144 -127 190 0 24 17 26 50 4 14 -8 7 1 -14 20 -43 40 -76 47 -76 17z"/>
<path d="M4669 6200 c-40 -42 -86 -124 -109 -193 -18 -56 -1 -66 44 -27 41 37
48 59 11 34 -14 -9 -28 -14 -32 -11 -15 16 12 60 61 97 48 37 61 55 80 112 11
35 -16 29 -55 -12z m26 -22 c-7 -23 -33 -49 -70 -70 -19 -11 -19 -11 -1 18 25
39 57 74 68 74 5 0 6 -10 3 -22z"/>
<path d="M5299 6219 c-24 -9 -30 -24 -65 -151 -35 -130 -42 -146 -80 -186 -36
-37 -47 -43 -75 -40 -31 3 -34 6 -37 38 -2 19 12 88 31 153 33 115 32 134 -5
105 -23 -18 -78 -199 -85 -279 -5 -64 -5 -67 21 -84 25 -17 29 -17 71 -1 24
10 60 35 79 57 l36 39 0 -31 c0 -28 3 -31 23 -25 12 3 25 6 28 6 4 0 9 22 13
48 5 39 56 253 82 340 7 24 2 25 -37 11z"/>
<path d="M8131 6119 c57 -130 90 -178 119 -176 24 2 24 1 0 52 l-19 40 6 -34
c12 -66 -21 -28 -82 96 -77 157 -88 167 -24 22z"/>
<path d="M7598 6153 c-26 -29 -30 -60 -18 -121 34 -160 156 -292 272 -292 42
0 42 -1 28 34 -7 20 -16 26 -40 26 -47 0 -92 23 -129 65 -31 36 -61 91 -61
114 0 6 46 -6 101 -25 56 -19 104 -33 107 -30 8 9 -26 90 -60 140 -34 51 -115
106 -159 106 -14 0 -33 -8 -41 -17z m126 -53 c30 -19 76 -84 76 -107 0 -8 -28
-2 -82 16 -75 25 -83 30 -86 55 -7 55 38 72 92 36z"/>
<path d="M8186 6127 c3 -10 9 -15 12 -12 3 3 0 11 -7 18 -10 9 -11 8 -5 -6z"/>
<path d="M4539 6088 c-16 -22 -17 -28 -6 -19 23 19 22 8 -14 -83 -16 -43 -28
-81 -25 -83 3 -3 10 7 16 23 6 16 24 64 40 106 17 43 30 80 30 83 0 15 -21 1
-41 -27z"/>
<path d="M4923 6084 c-48 -24 -121 -107 -150 -171 -30 -66 -43 -184 -23 -208
29 -35 134 4 143 54 7 33 1 38 -20 19 -82 -72 -123 14 -65 137 35 72 84 123
128 131 36 7 68 54 36 54 -9 0 -31 -8 -49 -16z"/>
<path d="M8210 6075 c0 -5 5 -17 10 -25 5 -8 10 -10 10 -5 0 6 -5 17 -10 25
-5 8 -10 11 -10 5z"/>
<path d="M7900 5983 c15 -49 38 -132 50 -185 18 -73 28 -98 42 -101 24 -7 23
-4 -13 134 -17 65 -29 125 -26 134 4 8 16 15 27 15 20 0 20 1 5 30 -18 36 -41
39 -51 8 -7 -22 -8 -22 -17 7 -9 28 -23 44 -38 45 -4 0 6 -39 21 -87z"/>
<path d="M4685 5943 c-18 -28 -25 -33 -25 -18 0 12 -3 16 -10 9 -11 -11 -75
-232 -85 -294 -6 -39 -5 -43 7 -30 8 8 21 42 28 75 24 115 51 186 84 223 18
20 36 45 39 55 11 30 -11 18 -38 -20z"/>
<path d="M8102 5873 c6 -80 55 -207 98 -253 33 -35 71 -41 63 -10 -3 11 -11
20 -17 20 -40 0 -116 148 -116 224 0 43 8 49 37 31 20 -13 23 -13 23 -1 0 19
-48 56 -73 56 -18 0 -19 -5 -15 -67z"/>
<path d="M5834 5814 c-41 -14 -42 -17 -49 -69 l-6 -54 -42 -3 c-41 -3 -42 -4
-45 -41 l-3 -39 40 7 40 7 -2 -224 c-2 -199 0 -227 16 -251 35 -54 96 -75 181
-63 l46 7 0 45 0 44 -55 0 c-48 0 -57 3 -72 27 -16 24 -18 48 -16 178 2 82 6
171 9 198 l6 47 74 0 c64 0 74 2 74 18 0 9 3 28 7 41 l6 24 -81 -6 -81 -6 6
64 c3 36 2 65 -3 64 -5 0 -28 -7 -50 -15z"/>
<path d="M6310 5713 c-85 -29 -143 -83 -182 -170 -18 -38 -22 -67 -23 -138 0
-82 3 -96 33 -157 56 -114 135 -162 272 -162 74 -1 93 3 142 27 116 57 172
157 172 304 0 74 -4 89 -35 150 -40 78 -94 125 -171 148 -65 19 -150 19 -208
-2z m213 -96 c72 -55 104 -182 73 -290 -44 -150 -197 -206 -299 -109 -115 108
-94 350 34 415 52 27 146 19 192 -16z"/>
<path d="M6854 5678 c4 -13 9 -135 12 -273 7 -346 0 -309 64 -313 l53 -3 -6
209 c-5 196 -5 212 14 250 48 97 165 89 210 -14 16 -35 22 -81 29 -232 5 -103
9 -193 10 -199 0 -9 16 -13 45 -13 l45 0 0 43 c0 23 -5 113 -10 201 -10 167
-5 203 34 235 24 20 83 17 108 -6 47 -41 61 -97 72 -290 l10 -183 34 0 35 0
-6 173 c-7 190 -24 270 -70 331 -66 85 -186 87 -237 3 -11 -18 -20 -27 -20
-20 0 18 -59 82 -89 97 -74 38 -150 26 -206 -31 l-35 -36 0 31 c0 53 -8 62
-57 62 -42 0 -45 -2 -39 -22z"/>
<path d="M5423 5656 c-66 -31 -105 -86 -111 -160 -4 -46 -1 -56 23 -85 16 -18
56 -46 90 -62 90 -42 112 -104 56 -160 -34 -34 -88 -39 -148 -14 -20 8 -37 14
-39 13 -1 -2 -5 -20 -9 -41 -7 -36 -6 -38 29 -52 50 -21 143 -19 186 4 19 10
48 35 64 55 26 31 31 47 34 104 4 92 -15 121 -110 167 -40 20 -79 43 -85 52
-20 26 -15 59 12 91 30 36 73 46 124 28 l39 -13 15 38 15 38 -31 10 c-48 17
-98 13 -154 -13z"/>
<path d="M5175 5620 c-35 -6 -37 -14 -55 -215 -13 -146 -30 -205 -67 -235 -32
-25 -58 -25 -81 -2 -29 29 -33 90 -17 244 19 182 20 171 -7 162 -13 -3 -25 -8
-27 -10 -8 -7 -30 -225 -31 -299 0 -100 13 -148 48 -175 40 -32 87 -21 135 29
l37 40 0 -34 c0 -33 2 -35 33 -35 l34 0 6 173 c3 94 11 211 17 260 7 48 10 91
8 95 -2 4 -16 5 -33 2z"/>
<path d="M7752 5574 c-57 -39 -78 -173 -48 -307 35 -156 124 -227 230 -183 29
12 32 17 28 45 -3 26 -8 31 -21 24 -9 -4 -35 -7 -58 -7 -64 -1 -105 46 -122
139 -10 53 -17 51 123 31 l88 -12 -6 53 c-19 165 -129 277 -214 217z m118 -74
c23 -24 58 -116 48 -125 -10 -8 -162 22 -166 33 -8 24 9 83 29 103 27 27 57
24 89 -11z"/>
<path d="M4760 5526 c-66 -44 -110 -160 -110 -285 0 -106 37 -171 97 -171 53
0 73 15 73 55 0 34 -12 46 -25 25 -11 -18 -61 -11 -81 11 -24 27 -32 141 -13
206 18 66 62 113 105 113 34 0 40 6 46 45 5 31 -48 32 -92 1z"/>
<path d="M8005 5508 c11 -52 24 -181 31 -300 6 -118 8 -128 27 -128 19 0 19 5
12 159 -8 173 -4 201 27 201 16 0 19 5 14 23 -3 12 -6 28 -6 35 0 6 -9 12 -20
12 -13 0 -22 -10 -28 -32 l-9 -33 -7 30 c-13 51 -15 55 -31 55 -11 0 -14 -7
-10 -22z"/>
<path d="M4588 5473 c-8 -10 -20 -27 -26 -38 -11 -19 -11 -19 -12 5 0 16 -3
21 -10 14 -12 -12 -26 -120 -36 -271 -6 -97 -5 -113 8 -113 12 0 16 23 20 128
6 129 24 205 53 216 13 5 31 63 23 72 -3 2 -12 -4 -20 -13z"/>
<path d="M8511 5139 c0 -24 4 -53 9 -64 6 -13 7 2 3 40 -7 73 -13 85 -12 24z"/>
<path d="M5790 4976 l-35 -13 3 -57 4 -56 -46 0 -46 0 0 -45 0 -45 43 0 44 0
11 -191 c9 -166 14 -197 34 -237 32 -65 65 -85 143 -90 85 -6 92 -2 87 42 -4
35 -5 36 -49 36 -55 0 -77 11 -92 48 -11 27 -32 369 -24 385 3 4 38 5 79 1
l74 -7 0 46 0 46 -77 3 -78 3 -3 73 c-3 80 -6 82 -72 58z"/>
<path d="M7806 4871 c-72 -48 -115 -154 -123 -301 -5 -107 10 -152 59 -180 52
-28 178 25 178 76 0 29 -1 29 -42 4 -43 -26 -90 -26 -113 0 -11 12 -20 41 -23
73 l-4 53 108 20 109 19 9 45 c11 61 -8 155 -40 186 -29 30 -78 31 -118 5z
m94 -66 c7 -9 15 -37 18 -64 5 -55 4 -56 -108 -68 l-61 -6 7 29 c11 44 42 102
61 113 27 15 69 13 83 -4z"/>
<path d="M4880 4873 c1 -40 23 -261 31 -307 21 -119 82 -197 156 -199 27 -1
41 5 59 26 13 15 25 27 28 27 3 0 6 -15 8 -32 2 -25 9 -35 30 -42 15 -5 30 -8
32 -5 3 3 -2 47 -10 99 -8 52 -20 169 -27 260 l-12 165 -33 3 -32 3 0 -61 c0
-34 5 -115 11 -180 13 -135 9 -163 -26 -186 -21 -14 -30 -14 -54 -5 -59 25
-82 104 -97 334 l-7 107 -28 0 c-16 0 -29 -3 -29 -7z"/>
<path d="M5395 4860 c-17 -5 -44 -23 -60 -40 -25 -26 -30 -40 -33 -93 -5 -93
15 -118 161 -208 60 -36 85 -85 65 -127 -19 -39 -85 -42 -151 -8 -44 24 -47
24 -47 7 0 -11 -3 -26 -6 -34 -9 -26 89 -67 160 -67 80 0 121 24 136 79 24 89
-25 174 -131 231 -82 43 -109 71 -109 110 0 73 53 97 134 62 50 -23 50 -22 61
26 6 30 4 33 -29 47 -48 20 -114 27 -151 15z"/>
<path d="M7400 4851 c-19 -10 -50 -37 -67 -60 -32 -42 -33 -42 -42 -19 -41
106 -196 116 -285 17 l-36 -39 0 29 c0 51 -9 61 -54 61 l-43 0 -6 -218 c-4
-120 -10 -253 -13 -295 l-7 -77 46 0 c25 0 49 4 52 10 3 5 12 94 19 198 13
189 19 216 60 260 60 67 147 67 182 1 18 -35 18 -151 0 -314 -7 -66 -12 -121
-12 -122 1 -1 20 1 43 4 49 6 47 1 63 188 6 72 15 152 20 179 24 117 130 172
184 94 21 -29 21 -133 1 -293 -8 -66 -15 -121 -15 -122 0 -10 51 0 63 11 18
18 52 302 45 373 -12 129 -99 187 -198 134z"/>
<path d="M6312 4835 c-129 -40 -205 -151 -205 -301 0 -130 56 -229 156 -278
76 -38 159 -44 244 -18 83 26 138 69 178 143 38 71 47 197 20 280 -25 75 -103
152 -175 173 -64 19 -159 20 -218 1z m189 -90 c68 -36 119 -156 104 -248 -15
-92 -77 -177 -141 -193 -47 -12 -121 2 -158 29 -123 94 -105 355 29 413 41 18
130 17 166 -1z"/>
<path d="M4596 4298 c46 -172 76 -250 91 -235 1 2 -11 44 -27 95 -34 104 -37
137 -14 150 11 6 13 16 9 35 -8 31 -29 36 -40 10 -7 -16 -9 -15 -14 6 -4 14
-12 26 -18 28 -8 3 -3 -29 13 -89z"/>
<path d="M4352 4370 c0 -8 4 -26 8 -40 6 -20 8 -21 8 -5 0 11 -3 29 -8 40 -5
12 -8 14 -8 5z"/>
<path d="M8033 4308 c-11 -13 -28 -34 -38 -48 l-17 -25 6 28 c6 27 0 33 -20
19 -5 -4 -21 -47 -34 -97 -13 -49 -36 -128 -51 -174 -16 -47 -27 -86 -25 -88
13 -14 49 47 76 132 40 123 62 167 95 193 25 20 52 82 36 82 -4 0 -17 -10 -28
-22z"/>
<path d="M4770 4271 c-27 -51 2 -168 64 -258 36 -54 116 -113 152 -113 38 0
27 32 -16 45 -73 22 -137 95 -161 186 -24 91 8 122 80 78 28 -17 33 -18 27 -4
-3 9 -6 22 -6 29 0 17 -72 56 -104 56 -15 0 -30 -8 -36 -19z"/>
<path d="M8379 4211 c-9 -20 -19 -49 -23 -66 -5 -29 -5 -29 6 -5 33 73 40 90
36 99 -1 5 -10 -8 -19 -28z"/>
<path d="M4974 4213 c2 -10 17 -63 31 -118 44 -163 90 -239 170 -276 50 -23
73 -24 96 -3 17 16 19 15 29 -10 8 -22 56 -54 65 -44 2 2 -8 36 -21 76 -13 40
-36 123 -50 185 -15 62 -31 117 -36 123 -5 7 -20 14 -33 17 -33 6 -33 -6 7
-158 27 -104 30 -126 19 -139 -29 -35 -92 -8 -134 56 -13 21 -40 95 -58 164
-28 108 -36 127 -56 135 -33 12 -35 12 -29 -8z"/>
<path d="M7724 4198 c-88 -59 -160 -182 -171 -288 -6 -60 12 -84 62 -83 62 2
186 76 164 98 -3 3 -27 -6 -52 -21 -75 -41 -134 -20 -112 42 7 19 22 31 50 41
156 53 174 63 185 101 36 131 -20 180 -126 110z m84 -75 l3 -41 -81 -27 c-45
-15 -84 -24 -87 -21 -8 8 44 87 75 114 18 15 37 22 57 20 28 -3 30 -6 33 -45z"/>
<path d="M5844 4159 l-41 -10 5 -46 5 -46 -43 7 c-41 6 -42 6 -36 -16 3 -13 6
-29 6 -35 0 -8 15 -13 40 -13 44 0 37 18 65 -165 19 -119 36 -153 95 -182 45
-23 150 -33 150 -14 0 28 -14 41 -47 41 -73 0 -90 25 -109 159 -22 154 -26
144 56 139 l70 -4 0 33 c0 31 -2 33 -37 33 -21 0 -55 3 -75 6 -37 6 -37 7 -44
65 -4 33 -9 59 -13 58 -3 -1 -25 -5 -47 -10z"/>
<path d="M8307 4133 c-32 -52 -48 -101 -36 -109 6 -3 8 -13 4 -23 -5 -12 -4
-13 6 -4 7 7 13 31 14 55 1 44 19 88 34 88 5 0 11 7 15 15 11 30 -14 14 -37
-22z"/>
<path d="M7343 4115 c-18 -7 -53 -33 -79 -57 -31 -28 -49 -39 -52 -30 -25 76
-167 69 -259 -12 l-46 -41 6 38 6 37 -44 0 -43 0 -7 -79 c-4 -44 -15 -137 -24
-206 l-18 -127 40 5 c22 3 43 11 47 17 4 6 14 60 23 121 10 61 24 123 32 139
33 64 133 108 183 81 34 -18 36 -65 8 -190 -14 -63 -26 -117 -26 -121 0 -7 67
4 75 12 1 1 15 55 29 118 15 63 35 130 44 149 36 73 146 119 172 72 16 -31 12
-63 -21 -182 -17 -61 -29 -112 -27 -114 2 -2 17 3 34 10 28 12 33 22 64 126
55 187 44 249 -44 249 -23 -1 -55 -7 -73 -15z"/>
<path d="M5433 4099 c-12 -6 -27 -24 -33 -39 -10 -23 -8 -36 8 -73 20 -46 59
-80 128 -115 62 -31 104 -71 104 -97 0 -42 -39 -45 -123 -11 l-58 24 3 -21 c6
-46 167 -93 224 -66 23 11 30 21 32 52 5 55 -31 96 -136 155 -93 53 -125 89
-106 119 16 26 57 27 110 3 49 -21 67 -15 61 20 -6 38 -164 74 -214 49z"/>
<path d="M8211 3999 c-42 -98 -83 -160 -95 -148 -4 3 9 43 29 89 20 46 33 85
30 88 -6 7 -85 -166 -92 -203 l-6 -30 44 40 c24 22 47 45 51 50 16 21 89 196
86 205 -2 6 -23 -35 -47 -91z"/>
<path d="M4576 4042 c-8 -14 30 -111 67 -166 44 -67 128 -135 111 -91 -4 8
-12 15 -18 15 -20 0 -106 100 -106 123 0 5 20 -8 45 -29 25 -20 45 -33 45 -30
0 18 -55 112 -87 146 -35 40 -48 47 -57 32z m85 -89 c12 -19 19 -36 17 -38 -9
-10 -78 66 -78 86 0 22 0 22 20 4 12 -10 30 -34 41 -52z"/>
<path d="M6323 4026 c-217 -53 -249 -300 -51 -387 61 -26 175 -31 245 -11 56
17 122 68 145 114 25 49 26 138 1 180 -28 48 -82 86 -148 103 -70 18 -121 18
-192 1z m185 -76 c123 -75 79 -268 -66 -287 -60 -8 -108 4 -145 37 -83 73 -62
211 38 256 46 20 134 17 173 -6z"/>
<path d="M8058 3948 c-67 -66 -147 -193 -148 -235 0 -26 42 -12 83 28 38 37
39 39 9 19 -50 -34 -57 -14 -22 57 26 52 60 91 128 144 14 11 16 29 3 29 -5 0
-29 -19 -53 -42z"/>
<path d="M8238 3951 c-33 -32 -38 -53 -7 -25 18 17 44 54 37 54 -2 0 -15 -13
-30 -29z"/>
<path d="M4710 3954 c0 -17 109 -231 125 -244 10 -8 16 -10 14 -5 -3 6 -19 39
-37 75 -35 72 -40 97 -17 102 14 3 14 6 -1 26 -10 15 -22 21 -34 17 -13 -4
-20 0 -25 15 -6 18 -25 29 -25 14z"/>
<path d="M7862 3825 c-28 -32 -39 -39 -35 -24 5 19 4 20 -16 10 -11 -7 -21
-17 -21 -24 0 -7 -24 -61 -54 -120 -34 -68 -49 -106 -40 -103 9 3 17 6 19 6 2
0 24 39 49 88 40 77 106 162 126 162 4 0 12 11 18 25 18 38 -2 30 -46 -20z"/>
<path d="M4920 3815 c-26 -31 33 -141 112 -210 42 -37 111 -74 136 -75 24 0 2
19 -46 40 -56 25 -116 81 -143 132 -36 69 -15 95 46 59 42 -25 45 -25 45 -8 0
14 -46 45 -95 64 -40 15 -41 15 -55 -2z"/>
<path d="M8093 3748 c-5 -7 -26 -40 -46 -73 -35 -58 -92 -123 -101 -114 -3 2
13 33 36 68 22 35 35 62 29 60 -12 -5 -112 -162 -106 -168 12 -11 111 81 143
134 19 33 42 70 50 83 15 23 11 31 -5 10z"/>
<path d="M7593 3720 c-69 -35 -152 -117 -184 -183 -28 -58 -21 -77 29 -77 43
0 163 56 170 78 3 11 -1 10 -19 -2 -36 -23 -107 -46 -124 -40 -8 4 -15 15 -15
26 0 20 2 21 153 83 49 20 72 35 82 56 26 50 16 89 -24 89 -4 0 -35 -14 -68
-30z m55 -46 c-3 -23 -14 -31 -83 -59 -44 -18 -82 -31 -84 -29 -7 6 61 74 94
95 17 10 40 19 53 19 19 0 23 -5 20 -26z"/>
<path d="M5130 3737 c0 -3 18 -43 39 -90 63 -137 144 -207 239 -207 24 0 44
-6 49 -14 9 -15 58 -33 52 -19 -2 4 -26 61 -54 125 -40 95 -54 118 -73 123
-14 3 -27 3 -30 0 -3 -3 11 -42 30 -87 20 -46 34 -86 32 -90 -8 -13 -53 -9
-82 6 -44 23 -69 56 -113 151 -22 50 -42 91 -42 91 -7 5 -47 14 -47 11z"/>
<path d="M4755 3663 c37 -69 155 -186 171 -171 3 3 -10 15 -28 26 -35 22 -107
92 -94 92 4 0 22 -11 40 -25 44 -34 52 -31 24 8 -36 50 -106 117 -123 117 -13
0 -12 -8 10 -47z m60 -23 c21 -22 35 -40 31 -40 -13 0 -86 61 -86 71 0 18 16
8 55 -31z"/>
<path d="M7878 3595 c-53 -41 -148 -149 -148 -167 0 -15 31 -8 69 17 50 31 64
52 17 24 -33 -19 -36 -20 -36 -3 0 17 89 110 145 151 17 12 26 22 20 22 -5 1
-36 -19 -67 -44z"/>
<path d="M4750 3621 c0 -5 5 -13 10 -16 6 -3 10 -2 10 4 0 5 -4 13 -10 16 -5
3 -10 2 -10 -4z"/>
<path d="M7215 3604 c-22 -8 -56 -28 -77 -44 -29 -24 -38 -27 -47 -16 -30 35
-150 19 -224 -30 -38 -25 -39 -25 -32 -4 6 20 4 21 -31 18 l-39 -3 -17 -95
c-10 -52 -20 -105 -23 -118 -5 -22 -3 -23 32 -20 l37 3 18 75 c14 56 26 82 48
102 50 47 149 61 163 23 4 -8 -5 -47 -18 -86 -14 -40 -25 -74 -25 -76 0 -6 45
-3 56 5 7 4 26 45 44 90 29 75 37 87 78 113 51 32 109 39 119 13 3 -9 -8 -48
-26 -87 -17 -40 -31 -75 -31 -78 0 -3 12 -4 26 -1 22 4 33 20 65 89 41 89 46
112 27 131 -16 16 -74 14 -123 -4z"/>
<path d="M4890 3606 c0 -14 104 -165 118 -171 15 -5 11 2 -30 59 -25 35 -30
64 -7 51 5 -4 9 -2 9 4 0 12 -39 35 -47 27 -3 -3 -14 5 -24 17 -10 12 -18 18
-19 13z"/>
<path d="M5547 3585 c-20 -20 -20 -18 -6 -49 14 -29 64 -65 136 -96 129 -55
90 -100 -42 -50 -15 6 -31 8 -34 4 -23 -23 156 -72 202 -55 60 23 20 73 -103
128 -63 29 -100 55 -100 73 0 19 41 20 94 2 36 -12 59 -15 63 -9 13 22 -57 52
-148 64 -35 4 -49 1 -62 -12z"/>
<path d="M5894 3570 c6 -31 5 -31 -30 -24 -31 6 -36 4 -32 -12 2 -11 15 -21
37 -25 39 -8 47 -18 55 -71 11 -65 35 -113 67 -132 40 -24 154 -35 147 -15 -3
8 -23 17 -45 20 -56 7 -68 20 -82 86 -7 32 -15 66 -18 77 -5 17 0 18 56 11 57
-6 61 -6 61 13 0 17 -9 21 -65 27 -54 5 -65 10 -65 25 0 39 -11 50 -52 50 -40
0 -40 -1 -34 -30z"/>
<path d="M6292 3495 c-60 -18 -87 -38 -102 -75 -11 -27 -11 -36 3 -65 25 -52
83 -78 188 -83 145 -7 239 35 255 116 5 27 1 37 -28 66 -19 19 -52 39 -73 45
-54 15 -190 13 -243 -4z m234 -58 c30 -36 31 -71 0 -102 -94 -94 -303 -22
-246 85 20 37 60 50 143 48 72 -3 81 -6 103 -31z"/>
<path d="M7686 3485 c-17 -13 -33 -22 -38 -19 -11 7 -44 -30 -93 -101 -49 -72
-51 -77 -31 -69 9 3 39 37 67 75 28 38 54 69 57 69 4 0 25 16 47 35 45 38 36
48 -9 10z"/>
<path d="M5097 3473 c-18 -31 76 -128 169 -174 35 -18 67 -29 70 -26 3 3 -22
17 -55 32 -57 26 -141 100 -141 125 0 16 27 12 70 -10 22 -11 40 -16 40 -11 0
10 -86 54 -127 66 -12 3 -23 2 -26 -2z"/>
<path d="M7436 3379 c-110 -45 -218 -141 -189 -170 12 -12 102 9 156 38 45 23
25 26 -24 3 -24 -11 -54 -20 -67 -20 -46 0 -15 25 78 61 99 40 137 67 127 93
-8 20 -21 20 -81 -5z m32 -26 c-3 -17 -137 -77 -147 -67 -7 7 30 33 84 59 60
29 68 30 63 8z"/>
<path d="M5327 3359 c55 -95 158 -169 234 -169 21 0 39 -4 41 -9 2 -4 14 -12
28 -16 23 -7 24 -7 8 16 -8 13 -29 47 -47 75 -26 44 -65 73 -79 60 -1 -2 11
-26 28 -52 l31 -49 -26 -3 c-39 -5 -96 29 -133 79 -50 68 -79 99 -91 99 -8 0
-6 -11 6 -31z"/>
<path d="M5050 3376 c0 -13 102 -126 113 -126 6 0 -3 15 -21 33 -35 36 -41 53
-16 43 14 -5 15 -4 4 9 -7 8 -19 15 -28 15 -8 0 -24 7 -34 17 -10 9 -18 13
-18 9z"/>
<path d="M7532 3270 c-18 -11 -38 -20 -46 -20 -7 0 -36 -27 -65 -60 -29 -33
-49 -60 -46 -60 4 0 32 24 63 53 31 30 74 64 95 76 20 12 37 25 37 27 0 6 -3
5 -38 -16z"/>
<path d="M7090 3273 c-8 -3 -33 -15 -55 -26 -29 -14 -58 -19 -105 -18 -41 0
-85 -6 -120 -18 -30 -11 -57 -16 -60 -11 -3 4 -17 6 -31 3 -21 -4 -28 -13 -37
-51 -6 -26 -14 -55 -18 -65 -6 -16 -2 -18 22 -15 23 2 34 13 54 53 23 45 30
52 80 68 41 14 60 16 77 8 l24 -11 -21 -41 c-24 -46 -22 -52 11 -44 16 4 33
23 49 53 27 51 90 92 142 92 33 0 35 -13 8 -58 -25 -41 -25 -44 2 -40 23 3 92
104 82 120 -6 9 -80 10 -104 1z"/>
<path d="M5250 3252 c0 -19 121 -112 145 -112 5 0 -10 13 -35 29 -85 53 -94
87 -14 52 26 -12 49 -20 51 -18 5 6 -112 57 -131 57 -9 0 -16 -4 -16 -8z"/>
<path d="M5677 3253 c-11 -17 36 -51 108 -78 92 -35 105 -49 40 -42 -27 3 -61
8 -75 11 -17 4 -13 1 10 -10 40 -19 130 -30 157 -20 17 7 16 9 -5 26 -12 10
-51 28 -86 40 -35 11 -72 27 -82 35 -17 12 -18 14 -2 20 9 4 40 0 68 -8 27 -8
52 -11 55 -6 3 4 -11 13 -32 19 -56 17 -149 24 -156 13z"/>
<path d="M5980 3235 c0 -9 -9 -15 -25 -15 -14 0 -25 -4 -25 -10 0 -5 10 -10
23 -10 32 0 43 -10 56 -51 18 -56 43 -72 114 -75 52 -3 56 -2 24 5 -45 9 -60
24 -75 69 l-11 32 50 0 c27 0 49 5 49 10 0 6 -23 10 -50 10 -45 0 -52 3 -60
25 -7 19 -17 25 -40 25 -20 0 -30 -5 -30 -15z"/>
<path d="M5481 3150 c36 -44 136 -100 179 -100 15 0 40 -7 56 -15 15 -8 30
-12 32 -10 8 8 -69 93 -88 98 -25 6 -25 2 1 -31 18 -23 19 -27 5 -30 -34 -7
-87 21 -139 74 -64 63 -92 72 -46 14z"/>
<path d="M6294 3179 c-52 -12 -83 -43 -68 -67 21 -35 79 -53 168 -53 121 -1
196 27 196 72 0 33 -57 52 -160 55 -52 2 -114 -1 -136 -7z m191 -23 c74 -31
22 -86 -80 -86 -62 0 -115 23 -115 50 0 44 123 66 195 36z"/>
<path d="M7268 3166 c-65 -28 -148 -82 -148 -98 0 -15 76 -5 120 16 19 9 26
14 15 10 -11 -3 -36 -8 -55 -11 -53 -8 -26 10 55 36 77 26 115 46 115 61 0 17
-42 10 -102 -14z m57 -5 c-13 -13 -118 -52 -123 -46 -6 6 99 55 118 55 9 0 10
-3 5 -9z"/>
<path d="M5410 3137 c0 -3 15 -10 32 -16 18 -6 28 -7 23 -2 -12 10 -55 25 -55
18z"/>
<path d="M7400 3120 c-8 -5 -10 -10 -5 -10 6 0 17 5 25 10 8 5 11 10 5 10 -5
0 -17 -5 -25 -10z"/>
<path d="M6987 3089 c-21 -5 -50 -15 -66 -23 -15 -8 -38 -12 -49 -9 -12 3 -52
-1 -89 -8 -38 -8 -79 -13 -93 -11 -32 3 -42 -6 -57 -45 -11 -32 -11 -33 17
-33 21 0 29 6 34 23 8 34 101 69 141 53 14 -5 14 -8 -1 -31 -16 -24 -15 -25 4
-25 12 0 32 15 48 35 19 25 41 39 77 50 28 8 54 15 59 15 14 0 9 -27 -7 -40
-21 -18 -19 -29 5 -23 21 6 70 57 70 74 0 11 -41 10 -93 -2z"/>
<path d="M5490 3076 c0 -2 7 -7 16 -10 8 -3 12 -2 9 4 -6 10 -25 14 -25 6z"/>
<path d="M5780 3071 c0 -9 82 -44 135 -57 14 -3 25 -10 25 -15 0 -9 -16 -7
-89 12 -19 4 -30 4 -25 0 11 -11 104 -31 140 -31 46 0 20 23 -54 48 -76 25
-99 46 -34 31 60 -14 82 -9 27 7 -57 16 -125 18 -125 5z"/>
<path d="M6025 3050 l-30 -7 32 -8 c21 -5 35 -16 43 -35 14 -34 23 -38 92 -44
45 -5 47 -4 14 3 -68 15 -78 60 -13 62 l42 2 -43 6 c-23 4 -48 13 -54 19 -13
13 -37 14 -83 2z"/>
<path d="M7210 3050 c-14 -4 -19 -8 -12 -9 7 -1 10 -5 7 -11 -4 -6 2 -7 16 -1
13 4 25 13 27 19 4 13 -2 14 -38 2z"/>
<path d="M6280 3011 c-16 -4 -25 -14 -25 -26 0 -58 284 -55 303 2 2 7 -8 17
-23 23 -29 11 -216 12 -255 1z m206 -16 c16 -13 17 -16 4 -25 -44 -29 -172
-21 -178 12 -4 20 14 25 94 27 39 1 67 -4 80 -14z"/>
<path d="M6900 2970 c-23 -7 -23 -8 9 -9 34 -1 34 -1 16 -21 -18 -20 -18 -21
1 -14 23 9 54 34 54 46 0 10 -46 9 -80 -2z"/>
<path d="M5870 2961 c0 -9 41 -23 48 -16 2 2 1 8 -3 14 -8 13 -45 15 -45 2z"/>
<path d="M5938 2953 c6 -2 18 -2 25 0 6 3 1 5 -13 5 -14 0 -19 -2 -12 -5z"/>
<path d="M5988 2943 c7 -3 16 -2 19 1 4 3 -2 6 -13 5 -11 0 -14 -3 -6 -6z"/>
<path d="M6080 2940 c-23 -8 -24 -8 -3 -9 12 -1 33 -12 47 -26 14 -14 35 -25
48 -25 20 1 21 2 6 11 -27 15 -22 27 15 32 l32 4 -37 1 c-20 1 -40 7 -43 12
-7 11 -29 11 -65 0z"/>
<path d="M6725 2940 c-30 -8 -30 -8 7 -9 29 -1 36 -4 32 -16 -10 -24 22 -18
50 10 l25 25 -42 -1 c-23 -1 -55 -5 -72 -9z"/>
<path d="M5938 2933 c7 -3 16 -2 19 1 4 3 -2 6 -13 5 -11 0 -14 -3 -6 -6z"/>
<path d="M5983 2923 c9 -2 17 -9 17 -14 0 -5 12 -9 28 -8 l27 1 -30 13 c-16 8
-37 14 -45 13 -10 0 -10 -2 3 -5z"/>
<path d="M6602 2905 c-10 -22 -9 -25 8 -25 10 0 30 11 44 25 l25 25 -33 0
c-25 0 -35 -6 -44 -25z"/>
<path d="M6293 2913 c-23 -4 -30 -17 -15 -27 5 -3 29 -8 53 -10 25 -3 34 -3
21 2 -46 14 -26 27 47 30 83 3 114 -11 60 -27 -33 -11 -33 -11 10 -6 118 15
70 46 -67 44 -48 -1 -97 -4 -109 -6z"/>
<path d="M4322 5570 c0 -14 2 -19 5 -12 2 6 2 18 0 25 -3 6 -5 1 -5 -13z"/>
<path d="M4312 5520 c0 -14 2 -19 5 -12 2 6 2 18 0 25 -3 6 -5 1 -5 -13z"/>
<path d="M8420 5701 c0 -5 7 -15 17 -22 15 -13 15 -12 4 9 -12 23 -21 28 -21
13z"/>
<path d="M8405 5624 c37 -88 40 -119 10 -94 -13 11 -14 10 -9 -6 17 -46 44
-59 44 -21 0 34 -29 125 -42 133 -8 5 -9 1 -3 -12z"/>
<path d="M8480 5475 c0 -5 5 -17 10 -25 5 -8 10 -10 10 -5 0 6 -5 17 -10 25
-5 8 -10 11 -10 5z"/>
</g>
</svg>
