<?xml version="1.0" standalone="no"?>
<!DOCTYPE svg PUBLIC "-//W3C//DTD SVG 20010904//EN"
 "http://www.w3.org/TR/2001/REC-SVG-20010904/DTD/svg10.dtd">
<svg version="1.0" xmlns="http://www.w3.org/2000/svg"
 width="1280.000000pt" height="1249.000000pt" viewBox="0 0 1280.000000 1249.000000"
 preserveAspectRatio="xMidYMid meet">
<metadata>
Created by potrace 1.15, written by Peter Selinger 2001-2017
</metadata>
<g transform="translate(0.000000,1249.000000) scale(0.100000,-0.100000)"
fill="#000000" stroke="none">
<path d="M2710 12480 c-605 -53 -1126 -255 -1539 -598 -481 -399 -830 -1020
-976 -1738 -4 -16 -17 -25 -50 -33 -58 -15 -120 -75 -135 -131 -7 -27 -10
-172 -8 -438 l3 -398 27 -41 c47 -71 86 -87 214 -91 132 -5 180 11 234 76 l34
40 22 -109 c101 -498 343 -942 710 -1299 362 -352 791 -576 1284 -669 363 -68
784 -50 1134 49 761 215 1368 764 1660 1500 48 123 106 320 126 436 l13 71 38
-38 c47 -47 89 -59 209 -59 70 0 105 5 135 19 51 23 101 79 114 128 15 51 15
765 0 816 -12 45 -67 110 -107 126 -25 10 -29 21 -45 94 -45 221 -138 504
-231 702 -166 356 -347 617 -599 862 -412 401 -917 632 -1547 709 -150 18
-574 26 -720 14z m658 -195 c410 -43 778 -163 1084 -352 488 -302 849 -772
1063 -1383 41 -120 115 -385 115 -417 0 -6 -15 -15 -32 -18 -48 -10 -95 -42
-123 -83 -14 -20 -25 -34 -25 -32 -1 3 -16 64 -35 136 -45 176 -91 299 -180
479 -270 554 -739 989 -1316 1220 -138 56 -277 97 -439 129 -175 35 -293 46
-490 46 -197 0 -314 -11 -490 -46 -965 -192 -1737 -943 -1951 -1901 l-23 -102
-16 37 c-18 40 -76 96 -109 107 -12 3 -21 10 -21 13 0 4 13 62 30 129 210 863
714 1513 1415 1826 241 107 517 179 815 212 166 18 550 18 728 0z"/>
<path d="M9600 12484 c-938 -67 -1656 -476 -2124 -1208 -191 -298 -358 -708
-428 -1047 l-22 -106 -45 -12 c-57 -15 -124 -81 -140 -136 -15 -53 -15 -765 0
-818 23 -86 111 -146 212 -147 l57 0 0 -118 c0 -408 94 -835 259 -1175 43 -89
147 -266 171 -290 4 -5 161 28 348 72 l340 81 99 -73 c443 -330 947 -497 1498
-497 549 0 1081 179 1516 510 l76 58 338 -80 338 -80 18 23 c10 13 46 70 80
127 212 355 338 846 339 1318 l0 121 70 5 c82 6 134 35 171 95 l24 38 0 420 0
420 -24 39 c-13 21 -45 51 -70 67 l-45 29 -27 123 c-97 431 -293 868 -536
1194 -440 590 -1041 929 -1823 1028 -120 16 -549 27 -670 19z m598 -199 c518
-54 973 -234 1337 -528 115 -93 307 -294 401 -420 185 -248 335 -544 438 -866
38 -115 86 -303 86 -332 0 -10 -15 -20 -41 -28 -45 -14 -115 -71 -125 -104 -5
-16 -18 19 -45 123 -73 280 -183 529 -338 761 -397 594 -1001 982 -1706 1094
-136 22 -479 31 -630 16 -455 -44 -888 -215 -1270 -500 -127 -95 -379 -347
-474 -474 -210 -282 -370 -620 -441 -932 -12 -55 -26 -109 -30 -120 -8 -20 -9
-20 -9 1 -2 43 -78 121 -138 140 -2 0 15 70 36 155 159 627 476 1150 906 1494
354 284 810 465 1310 519 180 19 550 20 733 1z"/>
<path d="M9518 5979 c-553 -23 -1086 -192 -1478 -467 -559 -394 -955 -1016
-1129 -1773 -27 -122 -28 -124 -59 -130 -72 -15 -131 -72 -152 -148 -13 -48
-13 -754 0 -802 15 -54 51 -101 95 -126 35 -20 54 -23 158 -23 89 0 128 4 153
16 31 15 75 58 99 97 9 14 135 -48 930 -462 912 -474 920 -479 917 -507 -4
-41 21 -116 53 -157 14 -20 50 -47 78 -62 204 -101 415 125 301 322 -71 123
-215 149 -349 64 -18 -12 -82 19 -615 296 -1160 603 -1279 665 -1290 658 -7
-4 -10 103 -10 337 0 313 -2 347 -19 383 -21 46 -64 89 -103 104 l-26 10 14
63 c63 274 137 485 254 723 325 663 840 1103 1517 1294 468 132 1050 145 1553
35 267 -59 593 -197 811 -343 414 -277 737 -694 944 -1219 60 -154 140 -417
151 -501 6 -49 6 -51 -17 -51 -61 -1 -138 -72 -159 -149 -13 -48 -13 -754 0
-802 15 -54 50 -101 95 -127 37 -21 50 -22 172 -20 130 3 132 3 170 34 21 16
48 50 61 74 22 44 22 49 22 440 0 360 -2 399 -19 435 -19 43 -82 105 -106 105
-8 0 -17 10 -19 23 -114 535 -295 952 -580 1332 -97 129 -326 367 -441 457
-533 417 -1173 600 -1977 567z"/>
<path d="M1397 5799 c-104 -25 -213 -112 -260 -209 -26 -55 -47 -152 -47 -221
l0 -37 -62 0 -63 1 -3 -56 -3 -56 -238 -3 -237 -3 -76 -38 c-87 -43 -142 -98
-185 -186 l-28 -56 0 -1680 0 -1680 33 -67 c38 -78 106 -144 190 -185 l57 -28
283 -3 c260 -3 283 -5 278 -20 -3 -9 -68 -289 -146 -622 -77 -333 -143 -614
-146 -625 -3 -11 284 269 638 622 l643 643 1165 1 1165 0 72 -76 c82 -88 78
-87 158 -6 27 28 54 51 60 51 5 0 158 -148 340 -330 181 -181 330 -328 332
-326 2 2 -37 173 -86 382 -102 435 -202 864 -204 879 -1 6 100 12 278 15 l280
5 63 29 c81 37 171 131 204 213 l23 58 3 1619 c1 1067 -1 1639 -8 1675 -24
132 -104 236 -228 294 l-67 32 -2070 2 c-1182 0 -2086 -3 -2108 -8z"/>
<path d="M8730 4510 c-36 -5 -95 -17 -132 -26 l-68 -18 0 -98 0 -98 53 29
c184 103 347 69 347 -71 0 -33 -8 -64 -22 -89 -12 -22 -97 -105 -200 -196
l-178 -156 0 -84 0 -83 320 0 320 0 0 80 0 80 -190 0 c-104 0 -190 3 -189 8 0
4 50 50 110 102 140 121 217 203 242 259 25 57 21 168 -9 226 -55 106 -217
160 -404 135z"/>
<path d="M9357 4235 l-177 -265 0 -95 0 -95 195 0 195 0 0 -80 0 -80 110 0
110 0 0 80 0 80 60 0 60 0 0 80 0 80 -60 0 -60 0 0 280 0 280 -128 0 -129 0
-176 -265z m213 -115 l0 -180 -120 0 c-66 0 -120 2 -120 5 0 7 232 355 237
355 1 0 3 -81 3 -180z"/>
<path d="M10185 4488 c-12 -35 -305 -978 -305 -982 0 -4 29 -6 64 -6 52 0 65
3 69 18 8 29 299 956 304 970 4 9 -12 12 -61 12 -44 0 -68 -4 -71 -12z"/>
<path d="M10402 4418 l3 -83 211 -5 211 -5 -158 -345 c-87 -190 -158 -348
-158 -352 -1 -5 48 -8 108 -8 l108 0 172 375 c165 363 171 377 171 440 l0 65
-335 0 -336 0 3 -82z"/>
</g>
</svg>
