<?xml version="1.0" standalone="no"?>
<!DOCTYPE svg PUBLIC "-//W3C//DTD SVG 20010904//EN"
 "http://www.w3.org/TR/2001/REC-SVG-20010904/DTD/svg10.dtd">
<svg version="1.0" xmlns="http://www.w3.org/2000/svg"
 width="1280.000000pt" height="1174.000000pt" viewBox="0 0 1280.000000 1174.000000"
 preserveAspectRatio="xMidYMid meet">
<metadata>
Created by potrace 1.15, written by Peter Selinger 2001-2017
</metadata>
<g transform="translate(0.000000,1174.000000) scale(0.100000,-0.100000)"
fill="#000000" stroke="none">
<path d="M6045 11725 c-711 -57 -1638 -286 -2110 -522 -256 -128 -583 -371
-621 -460 -18 -41 -7 -69 41 -111 76 -67 109 -82 221 -102 136 -25 187 -43
235 -87 49 -45 127 -149 173 -234 36 -66 116 -245 116 -260 0 -5 -14 -3 -31 3
-16 6 -54 8 -84 6 -64 -5 -112 -38 -150 -102 -45 -76 -140 -482 -152 -645 -14
-204 61 -368 225 -490 l69 -52 7 -67 c3 -37 6 -119 6 -182 -1 -254 -45 -394
-143 -448 -72 -39 -310 -12 -537 60 -81 26 -281 101 -301 114 -3 2 7 56 22
121 39 159 62 331 57 428 -4 65 -11 96 -42 165 -66 148 -72 173 -58 237 8 38
29 84 64 137 118 183 126 215 83 362 -45 154 -37 174 129 343 68 69 131 141
141 160 44 87 -33 239 -150 297 -52 25 -62 26 -153 21 -204 -11 -392 -112
-621 -334 -52 -51 -95 -93 -96 -93 0 0 8 62 17 138 24 182 26 503 4 621 -32
171 -119 291 -265 364 -119 60 -179 60 -273 4 l-53 -32 -1 55 c-2 103 -40 172
-116 211 -92 47 -314 45 -402 -4 -46 -25 -81 -79 -90 -140 -7 -39 -7 -39 -44
-33 -263 44 -436 -16 -459 -158 l-6 -37 -46 8 c-25 4 -82 8 -126 7 -68 0 -91
-5 -145 -31 -87 -40 -162 -109 -189 -174 -43 -98 -71 -281 -96 -610 -21 -291
-24 -337 -40 -699 -9 -179 -22 -397 -30 -485 -33 -365 -29 -534 15 -691 27
-93 118 -273 182 -359 102 -137 273 -290 434 -389 l61 -37 6 -80 c16 -198 128
-418 341 -666 195 -226 516 -498 886 -748 63 -43 119 -81 123 -85 4 -4 -8 -42
-28 -86 -68 -148 -107 -249 -171 -439 -220 -659 -371 -1610 -436 -2754 -3 -44
-2 -45 52 -78 83 -50 269 -126 504 -205 116 -39 212 -71 213 -72 0 -1 -18 -41
-42 -91 -129 -269 -221 -695 -255 -1185 -6 -91 -13 -193 -16 -226 l-5 -62
-132 -47 c-177 -64 -364 -146 -462 -202 -89 -51 -229 -157 -287 -216 -70 -73
-44 -123 81 -151 213 -49 1394 -46 1981 5 389 33 690 123 789 236 34 37 41 42
41 25 0 -39 24 -73 64 -94 33 -17 70 -23 191 -29 83 -5 220 -14 305 -20 85 -6
194 -10 241 -8 141 6 182 49 214 223 20 110 242 1033 291 1211 19 72 51 178
71 236 l35 107 816 -5 c938 -6 828 9 881 -118 53 -126 116 -363 184 -695 78
-373 106 -495 142 -610 52 -166 120 -257 207 -280 24 -6 92 -27 152 -46 222
-71 374 -67 588 17 70 27 80 29 105 16 107 -54 1084 -216 1573 -261 504 -47
1388 -44 1630 5 107 22 159 63 145 116 -32 129 -342 283 -822 409 -76 20 -139
37 -141 39 -2 1 -16 74 -32 161 -101 546 -232 1013 -384 1366 l-16 37 87 26
c189 58 482 176 692 279 60 30 114 55 119 57 5 2 24 90 42 194 17 105 34 198
36 207 4 15 20 8 94 -42 114 -76 242 -140 350 -175 115 -37 279 -45 401 -20
173 35 318 111 366 192 67 115 26 364 -88 539 -153 235 -574 430 -1211 559
-67 14 -125 29 -129 33 -4 4 -17 39 -29 77 -13 39 -25 75 -27 81 -2 6 62 48
144 93 461 255 834 576 1096 942 182 254 338 547 421 792 86 250 114 524 67
652 -77 210 -297 395 -760 639 -912 481 -1931 722 -3291 779 l-54 2 -23 220
c-30 296 -31 278 14 294 50 19 122 94 157 165 58 120 70 217 71 551 0 261 -2
308 -18 364 -25 86 -59 153 -97 184 -16 14 -30 34 -30 44 0 68 130 229 234
292 31 18 130 62 222 97 189 73 277 117 298 149 40 61 27 130 -39 211 -90 109
-615 455 -970 640 -267 138 -419 197 -700 269 -587 151 -1213 212 -1740 170z"/>
</g>
</svg>
