<?xml version="1.0" standalone="no"?>
<!DOCTYPE svg PUBLIC "-//W3C//DTD SVG 20010904//EN"
 "http://www.w3.org/TR/2001/REC-SVG-20010904/DTD/svg10.dtd">
<svg version="1.0" xmlns="http://www.w3.org/2000/svg"
 width="1280.000000pt" height="908.000000pt" viewBox="0 0 1280.000000 908.000000"
 preserveAspectRatio="xMidYMid meet">
<metadata>
Created by potrace 1.15, written by Peter Selinger 2001-2017
</metadata>
<g transform="translate(0.000000,908.000000) scale(0.100000,-0.100000)"
fill="#000000" stroke="none">
<path d="M4850 8445 c-238 -84 -297 -137 -449 -405 -13 -23 -49 -140 -56 -185
-4 -22 -11 -42 -16 -45 -5 -3 -18 -53 -29 -110 -22 -112 -51 -184 -79 -200
-10 -5 -23 -27 -31 -50 -7 -22 -19 -45 -26 -51 -7 -6 -26 -45 -43 -87 -32 -84
-48 -228 -33 -292 5 -21 4 -44 -2 -58 -7 -18 -2 -46 24 -130 19 -59 37 -110
40 -115 4 -4 24 -8 46 -9 21 0 45 -5 52 -11 15 -12 16 -64 0 -69 -8 -3 -9 -15
0 -49 7 -29 8 -57 2 -84 -5 -22 -10 -55 -10 -73 0 -27 -10 -42 -52 -81 -49
-45 -52 -50 -43 -77 8 -23 17 -30 43 -32 29 -3 32 -6 26 -30 -4 -15 -13 -32
-22 -39 -12 -10 -13 -17 -2 -42 13 -33 6 -136 -11 -146 -5 -4 -9 -13 -9 -22 0
-9 -17 -43 -39 -77 -21 -34 -55 -93 -74 -132 -20 -39 -60 -103 -90 -143 -95
-126 -123 -282 -97 -530 l12 -118 -51 -219 c-27 -120 -55 -248 -61 -284 -18
-108 -24 -378 -11 -452 l13 -65 -54 -54 c-30 -30 -67 -81 -83 -114 -16 -33
-45 -79 -66 -102 -35 -41 -54 -88 -51 -125 1 -9 -5 -22 -13 -28 -17 -14 -20
-53 -5 -80 7 -14 4 -32 -14 -71 -27 -57 -48 -136 -66 -244 -37 -226 -49 -315
-50 -358 l0 -48 -107 109 c-112 113 -178 156 -230 150 -26 -3 -28 -6 -27 -51
0 -31 6 -53 18 -65 16 -16 18 -16 36 8 l19 25 38 -21 c45 -26 136 -141 160
-203 l17 -44 -235 -231 c-331 -327 -1389 -1348 -1739 -1680 -162 -154 -385
-365 -495 -470 -110 -104 -211 -200 -225 -213 l-25 -23 121 0 121 0 183 173
c101 94 227 213 280 262 54 50 180 167 281 261 330 307 1501 1386 1653 1524
85 76 151 130 153 123 3 -7 13 -23 23 -35 16 -19 22 -21 38 -11 21 12 42 1 42
-23 0 -6 8 -14 18 -18 9 -3 32 -17 50 -30 18 -14 38 -26 44 -28 11 -4 -5 -359
-33 -743 -5 -77 -12 -207 -15 -290 -5 -177 -27 -371 -56 -510 -52 -249 -59
-311 -52 -487 l7 -168 1703 0 1703 0 -5 32 c-15 112 -55 462 -64 563 -6 66
-22 224 -36 350 -13 127 -25 243 -27 258 -2 26 4 30 66 57 38 16 102 51 143
79 72 49 213 126 219 119 2 -2 15 -34 30 -73 14 -38 33 -80 41 -92 8 -13 36
-75 63 -138 58 -136 86 -176 152 -217 27 -16 49 -33 49 -36 0 -4 -16 -52 -35
-106 -20 -55 -34 -105 -31 -113 9 -22 34 -15 50 15 14 24 15 -8 16 -335 l0
-363 1696 0 c1644 0 1695 1 1689 18 -5 17 -6 83 -2 197 1 22 -4 81 -11 130 -7
50 -14 126 -16 170 -2 44 -10 124 -17 178 -10 77 -10 117 -1 185 6 48 23 193
37 322 14 129 28 243 31 252 3 10 16 21 29 24 32 8 70 52 84 96 7 20 18 41 25
47 26 21 -12 217 -59 310 -24 49 -26 59 -29 264 -2 148 -11 276 -29 427 -15
118 -23 217 -19 221 4 3 41 31 82 61 259 188 363 271 505 405 286 267 600 656
782 968 23 39 91 144 151 235 l109 165 -13 55 c-8 30 -25 111 -40 180 -14 69
-34 159 -44 200 -10 41 -28 118 -40 170 -23 101 -111 332 -154 405 -14 24 -38
57 -52 75 -29 34 -142 113 -211 149 -136 69 -326 69 -507 1 -28 -11 -55 -20
-60 -20 -5 0 -6 54 -1 133 15 221 12 288 -12 334 l-22 41 30 11 c37 13 46 34
26 64 -12 18 -36 27 -118 45 -164 36 -379 74 -441 79 -37 4 -58 10 -58 18 0
24 -36 43 -95 49 -33 3 -94 11 -135 17 -41 6 -92 10 -114 10 -21 -1 -44 4 -52
10 -8 6 -22 8 -31 4 -10 -4 -73 -9 -140 -12 l-123 -4 6 31 c7 33 -6 69 -40
108 -11 12 -16 22 -12 22 4 0 0 14 -8 30 -9 17 -23 43 -31 59 -8 16 -11 31 -7
33 4 1 6 30 3 63 -5 49 -10 62 -27 69 -21 9 -24 17 -38 114 -2 12 -14 43 -26
70 -13 26 -27 56 -32 67 -17 39 -15 141 3 240 25 130 25 155 0 155 -11 0 -23
5 -26 10 -3 6 1 10 9 10 9 0 16 7 16 14 0 21 -112 130 -199 196 -40 30 -82 67
-93 82 -10 15 -24 28 -29 28 -6 0 -53 25 -105 55 -53 30 -108 55 -123 55 -15
0 -32 5 -39 12 -6 6 -55 13 -114 16 -86 3 -113 1 -165 -17 -34 -12 -71 -21
-82 -21 -10 0 -21 -6 -24 -14 -7 -17 -133 -106 -151 -106 -8 0 -19 -7 -26 -15
-7 -8 -9 -15 -4 -15 4 0 -8 -17 -28 -37 -55 -58 -112 -152 -143 -234 -15 -41
-33 -89 -41 -106 -7 -18 -11 -39 -8 -47 8 -21 -13 -186 -26 -201 -6 -7 -8 -41
-4 -88 6 -61 11 -78 25 -82 14 -5 19 -22 24 -81 4 -41 4 -96 1 -122 -23 -162
-14 -341 23 -475 12 -44 15 -69 8 -76 -6 -6 -10 -25 -9 -43 1 -36 -22 -68 -48
-68 -10 0 -20 -6 -23 -13 -2 -7 -29 -20 -60 -30 -30 -10 -60 -24 -67 -32 -7
-8 -26 -15 -42 -15 -17 0 -31 -6 -35 -15 -3 -9 -26 -26 -52 -39 -25 -13 -55
-33 -65 -45 -11 -12 -22 -21 -26 -21 -4 0 -57 -34 -118 -75 -104 -70 -172
-134 -172 -161 0 -6 -12 -20 -27 -30 -15 -9 -49 -38 -75 -62 -44 -41 -48 -49
-48 -91 0 -40 -5 -52 -31 -77 -18 -16 -40 -47 -50 -69 -46 -102 -51 -603 -9
-850 23 -136 22 -165 -5 -310 -8 -44 -15 -81 -15 -82 0 -2 9 -3 19 -3 32 0 35
-21 7 -44 -27 -22 -28 -24 -87 -301 -21 -98 -24 -173 -10 -222 7 -23 5 -37 -5
-50 -7 -10 -14 -25 -14 -34 0 -9 -7 -30 -16 -48 -9 -18 -14 -42 -10 -54 3 -11
0 -27 -7 -35 -23 -28 -59 -205 -62 -307 -2 -55 -4 -103 -5 -107 0 -5 -4 -8 -8
-8 -8 0 -18 22 -58 127 -59 155 -81 192 -224 369 -31 38 -101 125 -155 194
-126 157 -234 263 -407 402 -134 107 -138 111 -138 148 0 21 -9 69 -21 106
-19 61 -20 74 -9 120 8 34 10 76 6 121 -15 138 -7 220 32 343 36 111 37 119
34 245 -3 158 -22 255 -107 541 -56 186 -75 234 -164 413 -56 112 -99 207 -95
212 3 5 -21 46 -53 90 -111 154 -123 174 -118 189 17 58 16 69 -4 87 -12 10
-21 29 -21 46 0 20 -6 30 -20 34 -11 3 -20 11 -20 17 0 7 -12 23 -26 37 -36
33 -67 87 -61 104 6 13 -6 72 -22 110 -10 23 -23 62 -41 120 -10 34 -9 50 5
100 10 33 17 71 17 85 1 52 22 145 36 156 11 8 12 15 4 30 -6 10 -15 61 -21
113 -7 52 -21 121 -32 154 -11 33 -18 66 -15 74 3 8 -2 26 -12 41 -10 15 -40
59 -65 98 -80 121 -168 194 -337 277 -62 30 -70 32 -190 32 -122 1 -128 0
-240 -40z m-483 -862 c4 -11 -52 -63 -68 -63 -10 0 -7 17 12 67 7 18 13 21 31
14 12 -4 24 -13 25 -18z"/>
</g>
</svg>
