<?xml version="1.0" standalone="no"?>
<!DOCTYPE svg PUBLIC "-//W3C//DTD SVG 20010904//EN"
 "http://www.w3.org/TR/2001/REC-SVG-20010904/DTD/svg10.dtd">
<svg version="1.0" xmlns="http://www.w3.org/2000/svg"
 width="1280.000000pt" height="904.000000pt" viewBox="0 0 1280.000000 904.000000"
 preserveAspectRatio="xMidYMid meet">
<metadata>
Created by potrace 1.15, written by Peter Selinger 2001-2017
</metadata>
<g transform="translate(0.000000,904.000000) scale(0.100000,-0.100000)"
fill="#000000" stroke="none">
<path d="M6618 7860 c-3 -8 -83 -483 -178 -1055 -94 -572 -172 -1043 -173
-1048 -1 -4 -68 79 -149 185 -80 106 -231 304 -335 440 -103 136 -325 427
-493 647 -168 219 -306 398 -308 397 -1 -2 18 -59 42 -127 138 -386 657 -1882
654 -1885 -4 -3 -66 21 -333 131 -77 31 -198 81 -270 110 -71 29 -182 74 -245
100 -165 68 -422 172 -515 210 -44 18 -152 62 -240 98 -88 36 -194 79 -235 96
l-75 30 30 -27 c17 -15 241 -211 499 -437 l468 -410 -958 -5 c-700 -4 -964 -8
-979 -17 -11 -6 -29 -21 -39 -32 l-19 -21 1545 0 1545 0 24 26 c13 14 64 52
112 84 159 105 318 158 508 167 256 13 480 -57 684 -212 l85 -65 1566 0 1567
0 -19 21 c-10 11 -28 26 -39 32 -15 9 -272 13 -949 17 l-928 5 403 340 c222
187 439 369 481 404 43 36 76 66 75 68 -2 1 -179 -65 -393 -148 -1019 -394
-1404 -543 -1462 -565 l-63 -24 7 23 c8 26 98 271 229 622 51 138 132 356 180
485 48 129 141 378 206 554 66 175 119 320 119 323 0 2 -282 -351 -627 -784
-344 -433 -640 -805 -656 -825 -17 -21 -32 -37 -34 -35 -3 3 -67 435 -133 897
-17 118 -62 429 -100 690 -38 261 -71 489 -73 505 -2 19 -5 24 -9 15z"/>
<path d="M1683 5142 c-108 -39 -184 -117 -215 -222 -19 -64 -19 -761 0 -842
27 -118 119 -205 243 -229 l57 -11 6 -47 c9 -72 36 -91 139 -102 46 -6 131 -8
188 -7 l104 3 3 78 3 77 -75 0 c-93 0 -126 11 -126 43 0 20 9 28 46 42 69 26
111 68 129 128 20 67 31 556 17 738 -15 191 -64 276 -196 335 -82 37 -242 45
-323 16z m188 -232 c9 -33 9 -807 0 -840 -9 -32 -58 -41 -78 -14 -16 22 -19
817 -3 859 8 22 15 26 42 23 25 -2 34 -9 39 -28z"/>
<path d="M6789 5147 c-103 -29 -171 -88 -218 -187 l-26 -55 0 -390 c0 -297 3
-405 14 -453 36 -164 156 -243 369 -243 109 0 179 19 250 71 94 68 120 135
129 338 l6 132 -167 0 -166 0 0 -141 c0 -77 -5 -149 -10 -160 -7 -13 -21 -19
-45 -19 -24 0 -38 6 -45 19 -6 13 -10 168 -10 435 0 364 2 417 16 430 22 23
71 20 84 -3 6 -11 10 -90 10 -185 l0 -166 166 0 167 0 -6 163 c-6 194 -20 249
-79 313 -23 25 -69 58 -105 76 -60 29 -75 32 -177 35 -70 2 -128 -2 -157 -10z"/>
<path d="M7613 5142 c-96 -34 -162 -95 -202 -187 -35 -80 -40 -799 -6 -912 43
-144 170 -224 356 -224 190 0 309 76 357 230 15 49 17 105 17 441 0 339 -2
392 -18 442 -26 84 -82 150 -164 190 -62 30 -76 33 -178 36 -87 2 -121 -2
-162 -16z m187 -228 c6 -15 10 -189 10 -424 0 -235 -4 -409 -10 -424 -14 -38
-66 -37 -81 0 -6 17 -9 178 -7 434 3 437 4 440 54 440 17 0 28 -8 34 -26z"/>
<path d="M10815 5151 c-99 -26 -188 -99 -226 -184 l-24 -52 0 -425 0 -425 26
-55 c37 -79 72 -115 144 -151 75 -37 161 -49 267 -38 92 10 165 46 222 110 77
86 79 96 84 497 4 377 -3 484 -38 552 -34 66 -85 115 -152 146 -55 24 -77 28
-168 31 -58 1 -118 -2 -135 -6z m155 -230 c6 -13 10 -168 10 -435 0 -401 -1
-417 -20 -436 -15 -15 -25 -17 -42 -11 -35 13 -39 71 -36 492 3 403 4 409 54
409 13 0 28 -9 34 -19z"/>
<path d="M2292 4598 l3 -543 28 -57 c66 -134 217 -198 418 -177 121 13 210 73
260 175 l24 49 3 548 3 547 -160 0 -160 0 -3 -532 c-2 -293 -7 -541 -12 -550
-5 -11 -19 -18 -36 -18 -17 0 -31 7 -36 18 -5 9 -10 257 -12 550 l-3 532 -160
0 -160 0 3 -542z"/>
<path d="M3215 5128 c-2 -7 -38 -287 -80 -623 -42 -335 -79 -622 -82 -637 l-5
-28 169 0 170 0 6 68 c4 37 7 88 7 115 l0 47 59 0 c66 0 71 -5 71 -69 0 -21 3
-66 6 -100 l7 -61 163 0 c135 0 164 3 164 14 0 27 -181 1270 -186 1278 -3 4
-109 8 -235 8 -175 0 -231 -3 -234 -12z m275 -567 c11 -124 20 -233 20 -243 0
-17 -7 -19 -52 -16 l-53 3 3 40 c10 138 55 488 59 460 1 -11 12 -121 23 -244z"/>
<path d="M3900 4490 l0 -650 260 0 260 0 0 130 0 130 -100 0 -100 0 0 520 0
520 -160 0 -160 0 0 -650z"/>
<path d="M4470 4490 l0 -650 160 0 160 0 0 650 0 650 -160 0 -160 0 0 -650z"/>
<path d="M4834 5127 c-2 -7 -3 -67 -2 -133 l3 -119 95 -1 95 -2 3 -516 2 -516
160 0 160 0 2 516 3 517 93 -2 92 -2 1 68 c0 49 3 62 9 48 5 -11 50 -167 100
-346 l90 -326 0 -237 0 -236 150 0 150 0 0 230 0 230 116 402 c63 222 117 411
120 421 5 16 -6 17 -144 17 l-150 0 -12 -52 c-10 -51 -65 -356 -73 -408 l-3
-25 -6 25 c-3 14 -21 117 -38 230 -18 113 -35 211 -37 218 -8 18 -971 18 -979
-1z"/>
<path d="M8229 5136 c-2 -2 -3 -295 -1 -650 l2 -646 135 0 135 0 0 288 1 287
82 -285 83 -285 142 -3 142 -3 0 651 0 650 -135 0 -135 0 -1 -287 -1 -288 -40
125 c-21 69 -63 197 -91 285 l-52 160 -131 3 c-71 1 -132 1 -135 -2z"/>
<path d="M8994 5127 c-2 -7 -3 -67 -2 -133 l3 -119 95 -1 95 -2 3 -516 2 -516
160 0 160 0 2 516 3 517 93 -2 92 -2 0 135 0 136 -350 0 c-280 0 -352 -3 -356
-13z"/>
<path d="M9750 4492 l0 -652 160 0 160 0 0 290 0 290 34 0 c60 0 61 -5 64
-307 l3 -273 150 0 149 0 0 260 c0 322 -7 346 -113 395 l-48 22 44 11 c95 24
122 94 115 292 -3 102 -7 124 -32 173 -15 32 -43 69 -62 84 -58 44 -119 53
-381 60 l-243 6 0 -651z m396 404 c17 -13 19 -27 19 -126 0 -123 -8 -140 -67
-140 l-28 0 0 140 0 140 28 0 c16 0 37 -6 48 -14z"/>
<path d="M11400 4490 l0 -650 260 0 260 0 0 130 0 129 -97 3 -98 3 -2 515 -2
515 -161 3 -160 2 0 -650z"/>
<path d="M2770 3640 c0 -5 21 -22 48 -37 l47 -28 917 0 c505 0 918 -2 918 -5
-1 -3 -213 -183 -471 -400 -259 -217 -475 -400 -480 -406 -8 -10 452 165 1549
590 195 76 356 136 358 133 4 -4 -43 -133 -281 -772 -148 -397 -227 -609 -336
-905 -44 -118 -88 -237 -99 -264 -11 -27 -19 -51 -17 -52 2 -2 165 200 362
449 713 897 955 1199 955 1195 0 -2 42 -296 94 -653 52 -358 120 -833 153
-1057 32 -224 61 -408 66 -408 4 0 7 10 7 22 0 18 336 2058 343 2082 2 5 133
-162 292 -370 159 -209 346 -453 415 -544 70 -91 222 -291 339 -445 118 -154
220 -287 227 -295 13 -14 -6 49 -89 285 -188 535 -597 1711 -597 1718 0 4 8 4
18 -2 25 -13 1882 -771 1889 -771 4 0 -443 394 -527 465 -91 76 -455 398 -457
404 -2 3 423 6 945 6 1031 0 975 -3 1026 54 l19 21 -1538 0 -1538 0 -70 -66
c-394 -372 -1001 -370 -1409 5 l-66 61 -1506 0 c-953 0 -1506 -4 -1506 -10z"/>
</g>
</svg>
